<?xml version="1.0" encoding="UTF-8" standalone="no"?>
<!DOCTYPE svg PUBLIC "-//W3C//DTD SVG 1.1//EN"
 "http://www.w3.org/Graphics/SVG/1.1/DTD/svg11.dtd">
<!-- Generated by graphviz version 14.0.2 (20251019.1705)
 -->
<!-- Title: G Pages: 1 -->
<svg width="3418pt" height="1681pt"
 viewBox="0.00 0.00 3418.00 1681.00" xmlns="http://www.w3.org/2000/svg" xmlns:xlink="http://www.w3.org/1999/xlink">
<g id="graph0" class="graph" transform="scale(1 1) rotate(0) translate(21.6 1659.62)">
<title>G</title>
<polygon fill="#111111" stroke="none" points="-21.6,21.6 -21.6,-1659.62 3396.85,-1659.62 3396.85,21.6 -21.6,21.6"/>
<!-- App.tsx -->
<g id="node1" class="node">
<title>App.tsx</title>
<path fill="none" stroke="#c6c5fe" d="M307.58,-1530.54C307.58,-1530.54 262.42,-1530.54 262.42,-1530.54 258.46,-1530.54 254.5,-1526.58 254.5,-1522.62 254.5,-1522.62 254.5,-1514.7 254.5,-1514.7 254.5,-1510.75 258.46,-1506.79 262.42,-1506.79 262.42,-1506.79 307.58,-1506.79 307.58,-1506.79 311.54,-1506.79 315.5,-1510.75 315.5,-1514.7 315.5,-1514.7 315.5,-1522.62 315.5,-1522.62 315.5,-1526.58 311.54,-1530.54 307.58,-1530.54"/>
<text xml:space="preserve" text-anchor="middle" x="285" y="-1513.24" font-family="Arial" font-size="14.00" fill="#c6c5fe">App.tsx</text>
</g>
<!-- components/windowSize/DefaultLayout.tsx -->
<g id="node2" class="node">
<title>components/windowSize/DefaultLayout.tsx</title>
<path fill="none" stroke="#c6c5fe" d="M641.58,-655.54C641.58,-655.54 384.17,-655.54 384.17,-655.54 380.21,-655.54 376.25,-651.58 376.25,-647.62 376.25,-647.62 376.25,-639.7 376.25,-639.7 376.25,-635.75 380.21,-631.79 384.17,-631.79 384.17,-631.79 641.58,-631.79 641.58,-631.79 645.54,-631.79 649.5,-635.75 649.5,-639.7 649.5,-639.7 649.5,-647.62 649.5,-647.62 649.5,-651.58 645.54,-655.54 641.58,-655.54"/>
<text xml:space="preserve" text-anchor="middle" x="512.88" y="-638.24" font-family="Arial" font-size="14.00" fill="#c6c5fe">components/windowSize/DefaultLayout.tsx</text>
</g>
<!-- App.tsx&#45;&gt;components/windowSize/DefaultLayout.tsx -->
<g id="edge1" class="edge">
<title>App.tsx&#45;&gt;components/windowSize/DefaultLayout.tsx</title>
<path fill="none" stroke="#757575" d="M315.77,-1513C324.81,-1509.89 334,-1505.08 340.25,-1497.66 396.11,-1431.33 489.64,-798.34 508.5,-667.32"/>
<polygon fill="#757575" stroke="#757575" points="511.96,-667.84 509.92,-657.44 505.03,-666.85 511.96,-667.84"/>
</g>
<!-- components/windowSize/ScreenSizeWarning.tsx -->
<g id="node3" class="node">
<title>components/windowSize/ScreenSizeWarning.tsx</title>
<path fill="none" stroke="#c6c5fe" d="M2479.33,-1462.54C2479.33,-1462.54 2185.92,-1462.54 2185.92,-1462.54 2181.96,-1462.54 2178,-1458.58 2178,-1454.62 2178,-1454.62 2178,-1446.7 2178,-1446.7 2178,-1442.75 2181.96,-1438.79 2185.92,-1438.79 2185.92,-1438.79 2479.33,-1438.79 2479.33,-1438.79 2483.29,-1438.79 2487.25,-1442.75 2487.25,-1446.7 2487.25,-1446.7 2487.25,-1454.62 2487.25,-1454.62 2487.25,-1458.58 2483.29,-1462.54 2479.33,-1462.54"/>
<text xml:space="preserve" text-anchor="middle" x="2332.62" y="-1445.24" font-family="Arial" font-size="14.00" fill="#c6c5fe">components/windowSize/ScreenSizeWarning.tsx</text>
</g>
<!-- App.tsx&#45;&gt;components/windowSize/ScreenSizeWarning.tsx -->
<g id="edge2" class="edge">
<title>App.tsx&#45;&gt;components/windowSize/ScreenSizeWarning.tsx</title>
<path fill="none" stroke="#757575" d="M315.76,-1509.04C323.94,-1505.89 332.64,-1502.06 340.25,-1497.66 358.04,-1487.39 357.02,-1475.9 376.25,-1468.66 564.58,-1397.77 627.39,-1449.66 828.62,-1449.66 828.62,-1449.66 828.62,-1449.66 1259.5,-1449.66 1580.49,-1449.66 1955.54,-1450.12 2166.15,-1450.41"/>
<polygon fill="#757575" stroke="#757575" points="2166.09,-1453.91 2176.09,-1450.43 2166.1,-1446.91 2166.09,-1453.91"/>
</g>
<!-- constants/constants.ts -->
<g id="node4" class="node">
<title>constants/constants.ts</title>
<path fill="none" stroke="#cfffac" d="M3201.71,-1346.54C3201.71,-1346.54 3068.04,-1346.54 3068.04,-1346.54 3064.08,-1346.54 3060.12,-1342.58 3060.12,-1338.62 3060.12,-1338.62 3060.12,-1330.7 3060.12,-1330.7 3060.12,-1326.75 3064.08,-1322.79 3068.04,-1322.79 3068.04,-1322.79 3201.71,-1322.79 3201.71,-1322.79 3205.67,-1322.79 3209.62,-1326.75 3209.62,-1330.7 3209.62,-1330.7 3209.62,-1338.62 3209.62,-1338.62 3209.62,-1342.58 3205.67,-1346.54 3201.71,-1346.54"/>
<text xml:space="preserve" text-anchor="middle" x="3134.88" y="-1329.24" font-family="Arial" font-size="14.00" fill="#cfffac">constants/constants.ts</text>
</g>
<!-- App.tsx&#45;&gt;constants/constants.ts -->
<g id="edge3" class="edge">
<title>App.tsx&#45;&gt;constants/constants.ts</title>
<path fill="none" stroke="#757575" d="M316,-1519.7C398.05,-1522.44 633.11,-1529.66 828.62,-1529.66 828.62,-1529.66 828.62,-1529.66 2333.62,-1529.66 2632.04,-1529.66 2738.54,-1632.49 3004.25,-1496.66 3064.13,-1466.06 3105.61,-1393.94 3123.68,-1357.13"/>
<polygon fill="#757575" stroke="#757575" points="3126.75,-1358.82 3127.88,-1348.29 3120.43,-1355.82 3126.75,-1358.82"/>
</g>
<!-- hooks/useWindowWidth.tsx -->
<g id="node5" class="node">
<title>hooks/useWindowWidth.tsx</title>
<path fill="none" stroke="#cfffac" d="M596.21,-1581.54C596.21,-1581.54 429.54,-1581.54 429.54,-1581.54 425.58,-1581.54 421.62,-1577.58 421.62,-1573.62 421.62,-1573.62 421.62,-1565.7 421.62,-1565.7 421.62,-1561.75 425.58,-1557.79 429.54,-1557.79 429.54,-1557.79 596.21,-1557.79 596.21,-1557.79 600.17,-1557.79 604.12,-1561.75 604.12,-1565.7 604.12,-1565.7 604.12,-1573.62 604.12,-1573.62 604.12,-1577.58 600.17,-1581.54 596.21,-1581.54"/>
<text xml:space="preserve" text-anchor="middle" x="512.88" y="-1564.24" font-family="Arial" font-size="14.00" fill="#cfffac">hooks/useWindowWidth.tsx</text>
</g>
<!-- App.tsx&#45;&gt;hooks/useWindowWidth.tsx -->
<g id="edge4" class="edge">
<title>App.tsx&#45;&gt;hooks/useWindowWidth.tsx</title>
<path fill="none" stroke="#757575" d="M315.93,-1527.61C333.42,-1532.67 355.99,-1538.92 376.25,-1543.66 393.66,-1547.74 412.44,-1551.64 430.32,-1555.14"/>
<polygon fill="#757575" stroke="#757575" points="429.64,-1558.57 440.12,-1557.02 430.96,-1551.7 429.64,-1558.57"/>
</g>
<!-- styles/App.module.css -->
<g id="node6" class="node">
<title>styles/App.module.css</title>
<path fill="none" stroke="#cfffac" d="M580.46,-1501.54C580.46,-1501.54 445.29,-1501.54 445.29,-1501.54 441.33,-1501.54 437.38,-1497.58 437.38,-1493.62 437.38,-1493.62 437.38,-1485.7 437.38,-1485.7 437.38,-1481.75 441.33,-1477.79 445.29,-1477.79 445.29,-1477.79 580.46,-1477.79 580.46,-1477.79 584.42,-1477.79 588.38,-1481.75 588.38,-1485.7 588.38,-1485.7 588.38,-1493.62 588.38,-1493.62 588.38,-1497.58 584.42,-1501.54 580.46,-1501.54"/>
<text xml:space="preserve" text-anchor="middle" x="512.88" y="-1484.24" font-family="Arial" font-size="14.00" fill="#cfffac">styles/App.module.css</text>
</g>
<!-- App.tsx&#45;&gt;styles/App.module.css -->
<g id="edge5" class="edge">
<title>App.tsx&#45;&gt;styles/App.module.css</title>
<path fill="none" stroke="#757575" d="M315.99,-1514.81C343.96,-1511.22 387.03,-1505.69 425.68,-1500.73"/>
<polygon fill="#757575" stroke="#757575" points="426,-1504.22 435.47,-1499.47 425.11,-1497.27 426,-1504.22"/>
</g>
<!-- components/country/CountryLayout.tsx -->
<g id="node8" class="node">
<title>components/country/CountryLayout.tsx</title>
<path fill="none" stroke="#c6c5fe" d="M947.08,-655.54C947.08,-655.54 712.17,-655.54 712.17,-655.54 708.21,-655.54 704.25,-651.58 704.25,-647.62 704.25,-647.62 704.25,-639.7 704.25,-639.7 704.25,-635.75 708.21,-631.79 712.17,-631.79 712.17,-631.79 947.08,-631.79 947.08,-631.79 951.04,-631.79 955,-635.75 955,-639.7 955,-639.7 955,-647.62 955,-647.62 955,-651.58 951.04,-655.54 947.08,-655.54"/>
<text xml:space="preserve" text-anchor="middle" x="829.62" y="-638.24" font-family="Arial" font-size="14.00" fill="#c6c5fe">components/country/CountryLayout.tsx</text>
</g>
<!-- components/windowSize/DefaultLayout.tsx&#45;&gt;components/country/CountryLayout.tsx -->
<g id="edge80" class="edge">
<title>components/windowSize/DefaultLayout.tsx&#45;&gt;components/country/CountryLayout.tsx</title>
<path fill="none" stroke="#757575" d="M649.64,-643.66C663.95,-643.66 678.5,-643.66 692.81,-643.66"/>
<polygon fill="#757575" stroke="#757575" points="692.72,-647.16 702.72,-643.66 692.72,-640.16 692.72,-647.16"/>
</g>
<!-- store/countryStore.ts -->
<g id="node20" class="node">
<title>store/countryStore.ts</title>
<path fill="none" stroke="#c6c5fe" d="M2394.96,-602.54C2394.96,-602.54 2270.29,-602.54 2270.29,-602.54 2266.33,-602.54 2262.38,-598.58 2262.38,-594.62 2262.38,-594.62 2262.38,-586.7 2262.38,-586.7 2262.38,-582.75 2266.33,-578.79 2270.29,-578.79 2270.29,-578.79 2394.96,-578.79 2394.96,-578.79 2398.92,-578.79 2402.88,-582.75 2402.88,-586.7 2402.88,-586.7 2402.88,-594.62 2402.88,-594.62 2402.88,-598.58 2398.92,-602.54 2394.96,-602.54"/>
<text xml:space="preserve" text-anchor="middle" x="2332.62" y="-585.24" font-family="Arial" font-size="14.00" fill="#c6c5fe">store/countryStore.ts</text>
</g>
<!-- components/windowSize/DefaultLayout.tsx&#45;&gt;store/countryStore.ts -->
<g id="edge83" class="edge">
<title>components/windowSize/DefaultLayout.tsx&#45;&gt;store/countryStore.ts</title>
<path fill="none" stroke="#757575" d="M538.85,-631.29C610.15,-596.73 821.6,-499.5 1009.75,-465.66 1123.81,-445.15 1958.45,-392.3 2052.75,-459.66 2092.89,-488.34 2050.19,-533.89 2088.75,-564.66 2133.59,-600.45 2198.85,-605.67 2250.44,-602.64"/>
<polygon fill="#757575" stroke="#757575" points="2250.66,-606.14 2260.38,-601.93 2250.16,-599.16 2250.66,-606.14"/>
</g>
<!-- components/country/create&#45;country&#45;container/CreateCountryButtonContainer.tsx -->
<g id="node30" class="node">
<title>components/country/create&#45;country&#45;container/CreateCountryButtonContainer.tsx</title>
<path fill="none" stroke="#c6c5fe" d="M1499.33,-88.54C1499.33,-88.54 1017.67,-88.54 1017.67,-88.54 1013.71,-88.54 1009.75,-84.58 1009.75,-80.62 1009.75,-80.62 1009.75,-72.7 1009.75,-72.7 1009.75,-68.75 1013.71,-64.79 1017.67,-64.79 1017.67,-64.79 1499.33,-64.79 1499.33,-64.79 1503.29,-64.79 1507.25,-68.75 1507.25,-72.7 1507.25,-72.7 1507.25,-80.62 1507.25,-80.62 1507.25,-84.58 1503.29,-88.54 1499.33,-88.54"/>
<text xml:space="preserve" text-anchor="middle" x="1258.5" y="-71.24" font-family="Arial" font-size="14.00" fill="#c6c5fe">components/country/create&#45;country&#45;container/CreateCountryButtonContainer.tsx</text>
</g>
<!-- components/windowSize/DefaultLayout.tsx&#45;&gt;components/country/create&#45;country&#45;container/CreateCountryButtonContainer.tsx -->
<g id="edge81" class="edge">
<title>components/windowSize/DefaultLayout.tsx&#45;&gt;components/country/create&#45;country&#45;container/CreateCountryButtonContainer.tsx</title>
<path fill="none" stroke="#757575" d="M520.18,-631.41C556.25,-562.81 744.23,-225.12 1009.75,-102.66 1018.13,-98.8 1026.83,-95.4 1035.74,-92.41"/>
<polygon fill="#757575" stroke="#757575" points="1036.77,-95.76 1045.26,-89.42 1034.67,-89.08 1036.77,-95.76"/>
</g>
<!-- components/windowSize/DefaultMessage.tsx -->
<g id="node47" class="node">
<title>components/windowSize/DefaultMessage.tsx</title>
<path fill="none" stroke="#c6c5fe" d="M965.83,-954.54C965.83,-954.54 693.42,-954.54 693.42,-954.54 689.46,-954.54 685.5,-950.58 685.5,-946.62 685.5,-946.62 685.5,-938.7 685.5,-938.7 685.5,-934.75 689.46,-930.79 693.42,-930.79 693.42,-930.79 965.83,-930.79 965.83,-930.79 969.79,-930.79 973.75,-934.75 973.75,-938.7 973.75,-938.7 973.75,-946.62 973.75,-946.62 973.75,-950.58 969.79,-954.54 965.83,-954.54"/>
<text xml:space="preserve" text-anchor="middle" x="829.62" y="-937.24" font-family="Arial" font-size="14.00" fill="#c6c5fe">components/windowSize/DefaultMessage.tsx</text>
</g>
<!-- components/windowSize/DefaultLayout.tsx&#45;&gt;components/windowSize/DefaultMessage.tsx -->
<g id="edge82" class="edge">
<title>components/windowSize/DefaultLayout.tsx&#45;&gt;components/windowSize/DefaultMessage.tsx</title>
<path fill="none" stroke="#757575" d="M526.6,-655.75C574.95,-701.68 747.47,-865.57 807.69,-922.78"/>
<polygon fill="#757575" stroke="#757575" points="804.98,-925.03 814.64,-929.38 809.8,-919.95 804.98,-925.03"/>
</g>
<!-- components/windowSize/ScreenSizeWarning.tsx&#45;&gt;constants/constants.ts -->
<g id="edge86" class="edge">
<title>components/windowSize/ScreenSizeWarning.tsx&#45;&gt;constants/constants.ts</title>
<path fill="none" stroke="#757575" d="M2425.35,-1463.01C2584.12,-1482.83 2902.88,-1515.31 3004.25,-1471.66 3058.83,-1448.17 3101.17,-1389.13 3121.19,-1356.76"/>
<polygon fill="#757575" stroke="#757575" points="3124.19,-1358.56 3126.34,-1348.19 3118.19,-1354.96 3124.19,-1358.56"/>
</g>
<!-- ui/messages.tsx -->
<g id="node25" class="node">
<title>ui/messages.tsx</title>
<path fill="none" stroke="#c6c5fe" d="M2857.21,-741.54C2857.21,-741.54 2759.54,-741.54 2759.54,-741.54 2755.58,-741.54 2751.62,-737.58 2751.62,-733.62 2751.62,-733.62 2751.62,-725.7 2751.62,-725.7 2751.62,-721.75 2755.58,-717.79 2759.54,-717.79 2759.54,-717.79 2857.21,-717.79 2857.21,-717.79 2861.17,-717.79 2865.12,-721.75 2865.12,-725.7 2865.12,-725.7 2865.12,-733.62 2865.12,-733.62 2865.12,-737.58 2861.17,-741.54 2857.21,-741.54"/>
<text xml:space="preserve" text-anchor="middle" x="2808.38" y="-724.24" font-family="Arial" font-size="14.00" fill="#c6c5fe">ui/messages.tsx</text>
</g>
<!-- components/windowSize/ScreenSizeWarning.tsx&#45;&gt;ui/messages.tsx -->
<g id="edge88" class="edge">
<title>components/windowSize/ScreenSizeWarning.tsx&#45;&gt;ui/messages.tsx</title>
<path fill="none" stroke="#757575" d="M2372.66,-1438.38C2425.67,-1419.84 2520.24,-1379.89 2576.5,-1315.66 2733.26,-1136.71 2790.32,-838.68 2803.93,-753.22"/>
<polygon fill="#757575" stroke="#757575" points="2807.36,-753.9 2805.42,-743.49 2800.44,-752.84 2807.36,-753.9"/>
</g>
<!-- styles/windowSize/ScreenSizeWarning.module.css -->
<g id="node49" class="node">
<title>styles/windowSize/ScreenSizeWarning.module.css</title>
<path fill="none" stroke="#cfffac" d="M2961.08,-1462.54C2961.08,-1462.54 2655.67,-1462.54 2655.67,-1462.54 2651.71,-1462.54 2647.75,-1458.58 2647.75,-1454.62 2647.75,-1454.62 2647.75,-1446.7 2647.75,-1446.7 2647.75,-1442.75 2651.71,-1438.79 2655.67,-1438.79 2655.67,-1438.79 2961.08,-1438.79 2961.08,-1438.79 2965.04,-1438.79 2969,-1442.75 2969,-1446.7 2969,-1446.7 2969,-1454.62 2969,-1454.62 2969,-1458.58 2965.04,-1462.54 2961.08,-1462.54"/>
<text xml:space="preserve" text-anchor="middle" x="2808.38" y="-1445.24" font-family="Arial" font-size="14.00" fill="#cfffac">styles/windowSize/ScreenSizeWarning.module.css</text>
</g>
<!-- components/windowSize/ScreenSizeWarning.tsx&#45;&gt;styles/windowSize/ScreenSizeWarning.module.css -->
<g id="edge87" class="edge">
<title>components/windowSize/ScreenSizeWarning.tsx&#45;&gt;styles/windowSize/ScreenSizeWarning.module.css</title>
<path fill="none" stroke="#757575" d="M2487.44,-1450.66C2534.94,-1450.66 2587.54,-1450.66 2636.14,-1450.66"/>
<polygon fill="#757575" stroke="#757575" points="2635.9,-1454.16 2645.9,-1450.66 2635.9,-1447.16 2635.9,-1454.16"/>
</g>
<!-- __tests__/ScreenSize.test.tsx -->
<g id="node7" class="node">
<title>__tests__/ScreenSize.test.tsx</title>
<path fill="none" stroke="#c6c5fe" d="M185.83,-1581.54C185.83,-1581.54 7.92,-1581.54 7.92,-1581.54 3.96,-1581.54 0,-1577.58 0,-1573.62 0,-1573.62 0,-1565.7 0,-1565.7 0,-1561.75 3.96,-1557.79 7.92,-1557.79 7.92,-1557.79 185.83,-1557.79 185.83,-1557.79 189.79,-1557.79 193.75,-1561.75 193.75,-1565.7 193.75,-1565.7 193.75,-1573.62 193.75,-1573.62 193.75,-1577.58 189.79,-1581.54 185.83,-1581.54"/>
<text xml:space="preserve" text-anchor="middle" x="96.88" y="-1564.24" font-family="Arial" font-size="14.00" fill="#c6c5fe">__tests__/ScreenSize.test.tsx</text>
</g>
<!-- __tests__/ScreenSize.test.tsx&#45;&gt;App.tsx -->
<g id="edge6" class="edge">
<title>__tests__/ScreenSize.test.tsx&#45;&gt;App.tsx</title>
<path fill="none" stroke="#757575" d="M142.93,-1557.32C173.55,-1548.93 213.73,-1537.92 243.37,-1529.8"/>
<polygon fill="#757575" stroke="#757575" points="243.99,-1533.26 252.71,-1527.24 242.14,-1526.5 243.99,-1533.26"/>
</g>
<!-- __tests__/ScreenSize.test.tsx&#45;&gt;constants/constants.ts -->
<g id="edge7" class="edge">
<title>__tests__/ScreenSize.test.tsx&#45;&gt;constants/constants.ts</title>
<path fill="none" stroke="#757575" d="M177.79,-1581.99C261.01,-1593.74 395.26,-1609.66 511.88,-1609.66 511.88,-1609.66 511.88,-1609.66 2333.62,-1609.66 2633.03,-1609.66 2750.18,-1704.08 3004.25,-1545.66 3075.1,-1501.49 3113.05,-1402.92 3127.25,-1357.9"/>
<polygon fill="#757575" stroke="#757575" points="3130.57,-1358.98 3130.12,-1348.4 3123.87,-1356.95 3130.57,-1358.98"/>
</g>
<!-- __tests__/ScreenSize.test.tsx&#45;&gt;hooks/useWindowWidth.tsx -->
<g id="edge8" class="edge">
<title>__tests__/ScreenSize.test.tsx&#45;&gt;hooks/useWindowWidth.tsx</title>
<path fill="none" stroke="#757575" d="M194.16,-1569.66C258.97,-1569.66 344.31,-1569.66 410.22,-1569.66"/>
<polygon fill="#757575" stroke="#757575" points="409.94,-1573.16 419.94,-1569.66 409.94,-1566.16 409.94,-1573.16"/>
</g>
<!-- components/country/CountryLayout.tsx&#45;&gt;constants/constants.ts -->
<g id="edge20" class="edge">
<title>components/country/CountryLayout.tsx&#45;&gt;constants/constants.ts</title>
<path fill="none" stroke="#757575" d="M838.49,-655.85C862.54,-693.67 935.76,-813.03 973.75,-921.66 1000.68,-998.67 958.96,-1037.81 1009.75,-1101.66 1171.72,-1305.28 1290.96,-1279.07 1543.25,-1342.66 1988.84,-1454.98 2116.98,-1383.89 2576.5,-1380.66 2766.63,-1379.33 2816.45,-1404.33 3004.25,-1374.66 3034.34,-1369.91 3067.12,-1359.75 3092.19,-1350.86"/>
<polygon fill="#757575" stroke="#757575" points="3093.15,-1354.23 3101.35,-1347.53 3090.76,-1347.65 3093.15,-1354.23"/>
</g>
<!-- components/country/candidates/PersonCandidate.tsx -->
<g id="node9" class="node">
<title>components/country/candidates/PersonCandidate.tsx</title>
<path fill="none" stroke="#c6c5fe" d="M1958.21,-1070.54C1958.21,-1070.54 1637.79,-1070.54 1637.79,-1070.54 1633.83,-1070.54 1629.88,-1066.58 1629.88,-1062.62 1629.88,-1062.62 1629.88,-1054.7 1629.88,-1054.7 1629.88,-1050.75 1633.83,-1046.79 1637.79,-1046.79 1637.79,-1046.79 1958.21,-1046.79 1958.21,-1046.79 1962.17,-1046.79 1966.12,-1050.75 1966.12,-1054.7 1966.12,-1054.7 1966.12,-1062.62 1966.12,-1062.62 1966.12,-1066.58 1962.17,-1070.54 1958.21,-1070.54"/>
<text xml:space="preserve" text-anchor="middle" x="1798" y="-1053.24" font-family="Arial" font-size="14.00" fill="#c6c5fe">components/country/candidates/PersonCandidate.tsx</text>
</g>
<!-- components/country/CountryLayout.tsx&#45;&gt;components/country/candidates/PersonCandidate.tsx -->
<g id="edge9" class="edge">
<title>components/country/CountryLayout.tsx&#45;&gt;components/country/candidates/PersonCandidate.tsx</title>
<path fill="none" stroke="#757575" d="M835.82,-655.82C853.56,-695.76 915.88,-823.89 1009.75,-884.66 1194.48,-1004.26 1449.23,-1042.59 1618.32,-1054.36"/>
<polygon fill="#757575" stroke="#757575" points="1617.87,-1057.83 1628.08,-1055.01 1618.34,-1050.85 1617.87,-1057.83"/>
</g>
<!-- components/country/charts/PopulationPyramid.tsx -->
<g id="node10" class="node">
<title>components/country/charts/PopulationPyramid.tsx</title>
<path fill="none" stroke="#c6c5fe" d="M2483.46,-126.54C2483.46,-126.54 2181.79,-126.54 2181.79,-126.54 2177.83,-126.54 2173.88,-122.58 2173.88,-118.62 2173.88,-118.62 2173.88,-110.7 2173.88,-110.7 2173.88,-106.75 2177.83,-102.79 2181.79,-102.79 2181.79,-102.79 2483.46,-102.79 2483.46,-102.79 2487.42,-102.79 2491.38,-106.75 2491.38,-110.7 2491.38,-110.7 2491.38,-118.62 2491.38,-118.62 2491.38,-122.58 2487.42,-126.54 2483.46,-126.54"/>
<text xml:space="preserve" text-anchor="middle" x="2332.62" y="-109.24" font-family="Arial" font-size="14.00" fill="#c6c5fe">components/country/charts/PopulationPyramid.tsx</text>
</g>
<!-- components/country/CountryLayout.tsx&#45;&gt;components/country/charts/PopulationPyramid.tsx -->
<g id="edge10" class="edge">
<title>components/country/CountryLayout.tsx&#45;&gt;components/country/charts/PopulationPyramid.tsx</title>
<path fill="none" stroke="#757575" d="M832.47,-631.44C841.18,-578.32 883.12,-365.74 1009.75,-263.66 1183.28,-123.78 1846.63,-110.13 2162.5,-111.88"/>
<polygon fill="#757575" stroke="#757575" points="2162.05,-115.38 2172.08,-111.94 2162.1,-108.38 2162.05,-115.38"/>
</g>
<!-- components/country/descr&#45;block&#45;settings/AddCandidateButton.tsx -->
<g id="node11" class="node">
<title>components/country/descr&#45;block&#45;settings/AddCandidateButton.tsx</title>
<path fill="none" stroke="#c6c5fe" d="M1995.71,-914.54C1995.71,-914.54 1600.29,-914.54 1600.29,-914.54 1596.33,-914.54 1592.38,-910.58 1592.38,-906.62 1592.38,-906.62 1592.38,-898.7 1592.38,-898.7 1592.38,-894.75 1596.33,-890.79 1600.29,-890.79 1600.29,-890.79 1995.71,-890.79 1995.71,-890.79 1999.67,-890.79 2003.62,-894.75 2003.62,-898.7 2003.62,-898.7 2003.62,-906.62 2003.62,-906.62 2003.62,-910.58 1999.67,-914.54 1995.71,-914.54"/>
<text xml:space="preserve" text-anchor="middle" x="1798" y="-897.24" font-family="Arial" font-size="14.00" fill="#c6c5fe">components/country/descr&#45;block&#45;settings/AddCandidateButton.tsx</text>
</g>
<!-- components/country/CountryLayout.tsx&#45;&gt;components/country/descr&#45;block&#45;settings/AddCandidateButton.tsx -->
<g id="edge11" class="edge">
<title>components/country/CountryLayout.tsx&#45;&gt;components/country/descr&#45;block&#45;settings/AddCandidateButton.tsx</title>
<path fill="none" stroke="#757575" d="M838.48,-655.93C860.66,-689.37 927.52,-782.24 1009.75,-821.66 1219.42,-922.2 1495.92,-925.21 1659.26,-915.7"/>
<polygon fill="#757575" stroke="#757575" points="1659.06,-919.22 1668.83,-915.12 1658.63,-912.23 1659.06,-919.22"/>
</g>
<!-- components/country/descr&#45;block&#45;settings/CountryDescr.tsx -->
<g id="node12" class="node">
<title>components/country/descr&#45;block&#45;settings/CountryDescr.tsx</title>
<path fill="none" stroke="#c6c5fe" d="M1974.33,-358.54C1974.33,-358.54 1621.67,-358.54 1621.67,-358.54 1617.71,-358.54 1613.75,-354.58 1613.75,-350.62 1613.75,-350.62 1613.75,-342.7 1613.75,-342.7 1613.75,-338.75 1617.71,-334.79 1621.67,-334.79 1621.67,-334.79 1974.33,-334.79 1974.33,-334.79 1978.29,-334.79 1982.25,-338.75 1982.25,-342.7 1982.25,-342.7 1982.25,-350.62 1982.25,-350.62 1982.25,-354.58 1978.29,-358.54 1974.33,-358.54"/>
<text xml:space="preserve" text-anchor="middle" x="1798" y="-341.24" font-family="Arial" font-size="14.00" fill="#c6c5fe">components/country/descr&#45;block&#45;settings/CountryDescr.tsx</text>
</g>
<!-- components/country/CountryLayout.tsx&#45;&gt;components/country/descr&#45;block&#45;settings/CountryDescr.tsx -->
<g id="edge12" class="edge">
<title>components/country/CountryLayout.tsx&#45;&gt;components/country/descr&#45;block&#45;settings/CountryDescr.tsx</title>
<path fill="none" stroke="#757575" d="M837.6,-631.34C858.42,-595.85 924.05,-493.1 1009.75,-448.66 1194.68,-352.78 1435.68,-334.56 1602.07,-335.73"/>
<polygon fill="#757575" stroke="#757575" points="1601.87,-339.22 1611.91,-335.82 1601.94,-332.22 1601.87,-339.22"/>
</g>
<!-- components/country/descr&#45;block&#45;settings/ElectionModeChoosen.tsx -->
<g id="node13" class="node">
<title>components/country/descr&#45;block&#45;settings/ElectionModeChoosen.tsx</title>
<path fill="none" stroke="#c6c5fe" d="M2001.71,-872.54C2001.71,-872.54 1594.29,-872.54 1594.29,-872.54 1590.33,-872.54 1586.38,-868.58 1586.38,-864.62 1586.38,-864.62 1586.38,-856.7 1586.38,-856.7 1586.38,-852.75 1590.33,-848.79 1594.29,-848.79 1594.29,-848.79 2001.71,-848.79 2001.71,-848.79 2005.67,-848.79 2009.62,-852.75 2009.62,-856.7 2009.62,-856.7 2009.62,-864.62 2009.62,-864.62 2009.62,-868.58 2005.67,-872.54 2001.71,-872.54"/>
<text xml:space="preserve" text-anchor="middle" x="1798" y="-855.24" font-family="Arial" font-size="14.00" fill="#c6c5fe">components/country/descr&#45;block&#45;settings/ElectionModeChoosen.tsx</text>
</g>
<!-- components/country/CountryLayout.tsx&#45;&gt;components/country/descr&#45;block&#45;settings/ElectionModeChoosen.tsx -->
<g id="edge13" class="edge">
<title>components/country/CountryLayout.tsx&#45;&gt;components/country/descr&#45;block&#45;settings/ElectionModeChoosen.tsx</title>
<path fill="none" stroke="#757575" d="M844.25,-655.9C872.66,-680.64 941.28,-736.37 1009.75,-761.66 1192.59,-829.2 1413.82,-852.32 1575.15,-859.49"/>
<polygon fill="#757575" stroke="#757575" points="1574.52,-862.97 1584.66,-859.9 1574.82,-855.98 1574.52,-862.97"/>
</g>
<!-- components/country/map&#45;container&#45;settings/AddVoterButton.tsx -->
<g id="node14" class="node">
<title>components/country/map&#45;container&#45;settings/AddVoterButton.tsx</title>
<path fill="none" stroke="#c6c5fe" d="M1450.21,-634.54C1450.21,-634.54 1066.79,-634.54 1066.79,-634.54 1062.83,-634.54 1058.88,-630.58 1058.88,-626.62 1058.88,-626.62 1058.88,-618.7 1058.88,-618.7 1058.88,-614.75 1062.83,-610.79 1066.79,-610.79 1066.79,-610.79 1450.21,-610.79 1450.21,-610.79 1454.17,-610.79 1458.12,-614.75 1458.12,-618.7 1458.12,-618.7 1458.12,-626.62 1458.12,-626.62 1458.12,-630.58 1454.17,-634.54 1450.21,-634.54"/>
<text xml:space="preserve" text-anchor="middle" x="1258.5" y="-617.24" font-family="Arial" font-size="14.00" fill="#c6c5fe">components/country/map&#45;container&#45;settings/AddVoterButton.tsx</text>
</g>
<!-- components/country/CountryLayout.tsx&#45;&gt;components/country/map&#45;container&#45;settings/AddVoterButton.tsx -->
<g id="edge14" class="edge">
<title>components/country/CountryLayout.tsx&#45;&gt;components/country/map&#45;container&#45;settings/AddVoterButton.tsx</title>
<path fill="none" stroke="#757575" d="M955.24,-637.53C984.19,-636.11 1015.79,-634.55 1047.3,-633"/>
<polygon fill="#757575" stroke="#757575" points="1047.11,-636.52 1056.92,-632.53 1046.76,-629.53 1047.11,-636.52"/>
</g>
<!-- components/country/map&#45;container&#45;settings/Map.tsx -->
<g id="node15" class="node">
<title>components/country/map&#45;container&#45;settings/Map.tsx</title>
<path fill="none" stroke="#c6c5fe" d="M1416.46,-1092.54C1416.46,-1092.54 1100.54,-1092.54 1100.54,-1092.54 1096.58,-1092.54 1092.62,-1088.58 1092.62,-1084.62 1092.62,-1084.62 1092.62,-1076.7 1092.62,-1076.7 1092.62,-1072.75 1096.58,-1068.79 1100.54,-1068.79 1100.54,-1068.79 1416.46,-1068.79 1416.46,-1068.79 1420.42,-1068.79 1424.38,-1072.75 1424.38,-1076.7 1424.38,-1076.7 1424.38,-1084.62 1424.38,-1084.62 1424.38,-1088.58 1420.42,-1092.54 1416.46,-1092.54"/>
<text xml:space="preserve" text-anchor="middle" x="1258.5" y="-1075.24" font-family="Arial" font-size="14.00" fill="#c6c5fe">components/country/map&#45;container&#45;settings/Map.tsx</text>
</g>
<!-- components/country/CountryLayout.tsx&#45;&gt;components/country/map&#45;container&#45;settings/Map.tsx -->
<g id="edge15" class="edge">
<title>components/country/CountryLayout.tsx&#45;&gt;components/country/map&#45;container&#45;settings/Map.tsx</title>
<path fill="none" stroke="#757575" d="M837.79,-655.79C860.11,-693.9 929.55,-815.11 973.75,-921.66 993.78,-969.96 970.57,-999.04 1009.75,-1033.66 1030.08,-1051.62 1055.08,-1063.64 1081.3,-1071.55"/>
<polygon fill="#757575" stroke="#757575" points="1080.17,-1074.86 1090.74,-1074.18 1082.05,-1068.12 1080.17,-1074.86"/>
</g>
<!-- components/country/map&#45;container&#45;settings/VotersTable.tsx -->
<g id="node16" class="node">
<title>components/country/map&#45;container&#45;settings/VotersTable.tsx</title>
<path fill="none" stroke="#c6c5fe" d="M1438.21,-296.54C1438.21,-296.54 1078.79,-296.54 1078.79,-296.54 1074.83,-296.54 1070.88,-292.58 1070.88,-288.62 1070.88,-288.62 1070.88,-280.7 1070.88,-280.7 1070.88,-276.75 1074.83,-272.79 1078.79,-272.79 1078.79,-272.79 1438.21,-272.79 1438.21,-272.79 1442.17,-272.79 1446.12,-276.75 1446.12,-280.7 1446.12,-280.7 1446.12,-288.62 1446.12,-288.62 1446.12,-292.58 1442.17,-296.54 1438.21,-296.54"/>
<text xml:space="preserve" text-anchor="middle" x="1258.5" y="-279.24" font-family="Arial" font-size="14.00" fill="#c6c5fe">components/country/map&#45;container&#45;settings/VotersTable.tsx</text>
</g>
<!-- components/country/CountryLayout.tsx&#45;&gt;components/country/map&#45;container&#45;settings/VotersTable.tsx -->
<g id="edge16" class="edge">
<title>components/country/CountryLayout.tsx&#45;&gt;components/country/map&#45;container&#45;settings/VotersTable.tsx</title>
<path fill="none" stroke="#757575" d="M834.45,-631.46C849.14,-586.72 906.28,-430.25 1009.75,-352.66 1045.94,-325.52 1092.34,-309.21 1135.18,-299.41"/>
<polygon fill="#757575" stroke="#757575" points="1135.77,-302.87 1144.8,-297.32 1134.29,-296.03 1135.77,-302.87"/>
</g>
<!-- components/country/settings&#45;panel/CopyCountryButton.tsx -->
<g id="node17" class="node">
<title>components/country/settings&#45;panel/CopyCountryButton.tsx</title>
<path fill="none" stroke="#c6c5fe" d="M1434.83,-550.54C1434.83,-550.54 1082.17,-550.54 1082.17,-550.54 1078.21,-550.54 1074.25,-546.58 1074.25,-542.62 1074.25,-542.62 1074.25,-534.7 1074.25,-534.7 1074.25,-530.75 1078.21,-526.79 1082.17,-526.79 1082.17,-526.79 1434.83,-526.79 1434.83,-526.79 1438.79,-526.79 1442.75,-530.75 1442.75,-534.7 1442.75,-534.7 1442.75,-542.62 1442.75,-542.62 1442.75,-546.58 1438.79,-550.54 1434.83,-550.54"/>
<text xml:space="preserve" text-anchor="middle" x="1258.5" y="-533.24" font-family="Arial" font-size="14.00" fill="#c6c5fe">components/country/settings&#45;panel/CopyCountryButton.tsx</text>
</g>
<!-- components/country/CountryLayout.tsx&#45;&gt;components/country/settings&#45;panel/CopyCountryButton.tsx -->
<g id="edge17" class="edge">
<title>components/country/CountryLayout.tsx&#45;&gt;components/country/settings&#45;panel/CopyCountryButton.tsx</title>
<path fill="none" stroke="#757575" d="M850.67,-631.34C882.87,-612.25 948.7,-576 1009.75,-559.66 1026.76,-555.11 1044.63,-551.48 1062.67,-548.58"/>
<polygon fill="#757575" stroke="#757575" points="1063.06,-552.06 1072.42,-547.1 1062.01,-545.14 1063.06,-552.06"/>
</g>
<!-- components/country/settings&#45;panel/CountryNameInput.tsx -->
<g id="node18" class="node">
<title>components/country/settings&#45;panel/CountryNameInput.tsx</title>
<path fill="none" stroke="#c6c5fe" d="M1432.96,-676.54C1432.96,-676.54 1084.04,-676.54 1084.04,-676.54 1080.08,-676.54 1076.12,-672.58 1076.12,-668.62 1076.12,-668.62 1076.12,-660.7 1076.12,-660.7 1076.12,-656.75 1080.08,-652.79 1084.04,-652.79 1084.04,-652.79 1432.96,-652.79 1432.96,-652.79 1436.92,-652.79 1440.88,-656.75 1440.88,-660.7 1440.88,-660.7 1440.88,-668.62 1440.88,-668.62 1440.88,-672.58 1436.92,-676.54 1432.96,-676.54"/>
<text xml:space="preserve" text-anchor="middle" x="1258.5" y="-659.24" font-family="Arial" font-size="14.00" fill="#c6c5fe">components/country/settings&#45;panel/CountryNameInput.tsx</text>
</g>
<!-- components/country/CountryLayout.tsx&#45;&gt;components/country/settings&#45;panel/CountryNameInput.tsx -->
<g id="edge18" class="edge">
<title>components/country/CountryLayout.tsx&#45;&gt;components/country/settings&#45;panel/CountryNameInput.tsx</title>
<path fill="none" stroke="#757575" d="M955.24,-649.79C989.48,-651.48 1027.42,-653.34 1064.53,-655.17"/>
<polygon fill="#757575" stroke="#757575" points="1064.34,-658.67 1074.5,-655.66 1064.69,-651.67 1064.34,-658.67"/>
</g>
<!-- components/country/settings&#45;panel/DeleteCountryButton.tsx -->
<g id="node19" class="node">
<title>components/country/settings&#45;panel/DeleteCountryButton.tsx</title>
<path fill="none" stroke="#c6c5fe" d="M1438.58,-752.54C1438.58,-752.54 1078.42,-752.54 1078.42,-752.54 1074.46,-752.54 1070.5,-748.58 1070.5,-744.62 1070.5,-744.62 1070.5,-736.7 1070.5,-736.7 1070.5,-732.75 1074.46,-728.79 1078.42,-728.79 1078.42,-728.79 1438.58,-728.79 1438.58,-728.79 1442.54,-728.79 1446.5,-732.75 1446.5,-736.7 1446.5,-736.7 1446.5,-744.62 1446.5,-744.62 1446.5,-748.58 1442.54,-752.54 1438.58,-752.54"/>
<text xml:space="preserve" text-anchor="middle" x="1258.5" y="-735.24" font-family="Arial" font-size="14.00" fill="#c6c5fe">components/country/settings&#45;panel/DeleteCountryButton.tsx</text>
</g>
<!-- components/country/CountryLayout.tsx&#45;&gt;components/country/settings&#45;panel/DeleteCountryButton.tsx -->
<g id="edge19" class="edge">
<title>components/country/CountryLayout.tsx&#45;&gt;components/country/settings&#45;panel/DeleteCountryButton.tsx</title>
<path fill="none" stroke="#757575" d="M882.32,-655.96C918.08,-664.42 966.78,-675.86 1009.75,-685.66 1070.65,-699.56 1140.08,-714.94 1189.92,-725.89"/>
<polygon fill="#757575" stroke="#757575" points="1188.88,-729.24 1199.4,-727.97 1190.38,-722.41 1188.88,-729.24"/>
</g>
<!-- components/country/CountryLayout.tsx&#45;&gt;store/countryStore.ts -->
<g id="edge21" class="edge">
<title>components/country/CountryLayout.tsx&#45;&gt;store/countryStore.ts</title>
<path fill="none" stroke="#757575" d="M842.67,-631.35C869.64,-604.72 938.17,-542.18 1009.75,-517.66 1119.42,-480.11 1954.14,-431.72 2052.75,-492.66 2083.18,-511.47 2059.36,-544.26 2088.75,-564.66 2135.46,-597.1 2199.89,-602.69 2250.64,-600.65"/>
<polygon fill="#757575" stroke="#757575" points="2250.6,-604.16 2260.4,-600.15 2250.23,-597.17 2250.6,-604.16"/>
</g>
<!-- styles/country/CountryLayout.module.css -->
<g id="node21" class="node">
<title>styles/country/CountryLayout.module.css</title>
<path fill="none" stroke="#cfffac" d="M1381.96,-592.54C1381.96,-592.54 1135.04,-592.54 1135.04,-592.54 1131.08,-592.54 1127.12,-588.58 1127.12,-584.62 1127.12,-584.62 1127.12,-576.7 1127.12,-576.7 1127.12,-572.75 1131.08,-568.79 1135.04,-568.79 1135.04,-568.79 1381.96,-568.79 1381.96,-568.79 1385.92,-568.79 1389.88,-572.75 1389.88,-576.7 1389.88,-576.7 1389.88,-584.62 1389.88,-584.62 1389.88,-588.58 1385.92,-592.54 1381.96,-592.54"/>
<text xml:space="preserve" text-anchor="middle" x="1258.5" y="-575.24" font-family="Arial" font-size="14.00" fill="#cfffac">styles/country/CountryLayout.module.css</text>
</g>
<!-- components/country/CountryLayout.tsx&#45;&gt;styles/country/CountryLayout.module.css -->
<g id="edge22" class="edge">
<title>components/country/CountryLayout.tsx&#45;&gt;styles/country/CountryLayout.module.css</title>
<path fill="none" stroke="#757575" d="M875.17,-631.31C911.2,-621.78 963.38,-609.03 1009.75,-601.66 1043.89,-596.24 1080.92,-592.16 1115.68,-589.11"/>
<polygon fill="#757575" stroke="#757575" points="1115.71,-592.62 1125.37,-588.28 1115.11,-585.64 1115.71,-592.62"/>
</g>
<!-- components/country/candidates/PersonCandidate.tsx&#45;&gt;constants/constants.ts -->
<g id="edge24" class="edge">
<title>components/country/candidates/PersonCandidate.tsx&#45;&gt;constants/constants.ts</title>
<path fill="none" stroke="#757575" d="M1874.1,-1046.3C1928.37,-1041.49 2000.96,-1044.01 2052.75,-1079.66 2083.21,-1100.63 2059.25,-1132.38 2088.75,-1154.66 2165.5,-1212.63 2813.24,-1295.89 3048.73,-1324.53"/>
<polygon fill="#757575" stroke="#757575" points="3048.11,-1327.98 3058.46,-1325.71 3048.96,-1321.03 3048.11,-1327.98"/>
</g>
<!-- components/country/candidates/PersonCandidate.tsx&#45;&gt;store/countryStore.ts -->
<g id="edge25" class="edge">
<title>components/country/candidates/PersonCandidate.tsx&#45;&gt;store/countryStore.ts</title>
<path fill="none" stroke="#757575" d="M1850.88,-1046.35C1910.07,-1029.38 2004.84,-992.76 2052.75,-923.66 2122.73,-822.73 2006.7,-741.06 2088.75,-649.66 2128.94,-604.9 2196.83,-591.31 2250.63,-588.27"/>
<polygon fill="#757575" stroke="#757575" points="2250.54,-591.78 2260.37,-587.84 2250.23,-584.78 2250.54,-591.78"/>
</g>
<!-- components/country/candidates/CandidateDeleteButtton.tsx -->
<g id="node22" class="node">
<title>components/country/candidates/CandidateDeleteButtton.tsx</title>
<path fill="none" stroke="#cfffac" d="M2512.33,-1070.54C2512.33,-1070.54 2152.92,-1070.54 2152.92,-1070.54 2148.96,-1070.54 2145,-1066.58 2145,-1062.62 2145,-1062.62 2145,-1054.7 2145,-1054.7 2145,-1050.75 2148.96,-1046.79 2152.92,-1046.79 2152.92,-1046.79 2512.33,-1046.79 2512.33,-1046.79 2516.29,-1046.79 2520.25,-1050.75 2520.25,-1054.7 2520.25,-1054.7 2520.25,-1062.62 2520.25,-1062.62 2520.25,-1066.58 2516.29,-1070.54 2512.33,-1070.54"/>
<text xml:space="preserve" text-anchor="middle" x="2332.62" y="-1053.24" font-family="Arial" font-size="14.00" fill="#cfffac">components/country/candidates/CandidateDeleteButtton.tsx</text>
</g>
<!-- components/country/candidates/PersonCandidate.tsx&#45;&gt;components/country/candidates/CandidateDeleteButtton.tsx -->
<g id="edge23" class="edge">
<title>components/country/candidates/PersonCandidate.tsx&#45;&gt;components/country/candidates/CandidateDeleteButtton.tsx</title>
<path fill="none" stroke="#757575" d="M1966.43,-1058.66C2019.36,-1058.66 2078.37,-1058.66 2133.25,-1058.66"/>
<polygon fill="#757575" stroke="#757575" points="2133.02,-1062.16 2143.02,-1058.66 2133.02,-1055.16 2133.02,-1062.16"/>
</g>
<!-- styles/country/candidates/PersonCandidate.module.css -->
<g id="node23" class="node">
<title>styles/country/candidates/PersonCandidate.module.css</title>
<path fill="none" stroke="#cfffac" d="M2498.83,-1112.54C2498.83,-1112.54 2166.42,-1112.54 2166.42,-1112.54 2162.46,-1112.54 2158.5,-1108.58 2158.5,-1104.62 2158.5,-1104.62 2158.5,-1096.7 2158.5,-1096.7 2158.5,-1092.75 2162.46,-1088.79 2166.42,-1088.79 2166.42,-1088.79 2498.83,-1088.79 2498.83,-1088.79 2502.79,-1088.79 2506.75,-1092.75 2506.75,-1096.7 2506.75,-1096.7 2506.75,-1104.62 2506.75,-1104.62 2506.75,-1108.58 2502.79,-1112.54 2498.83,-1112.54"/>
<text xml:space="preserve" text-anchor="middle" x="2332.62" y="-1095.24" font-family="Arial" font-size="14.00" fill="#cfffac">styles/country/candidates/PersonCandidate.module.css</text>
</g>
<!-- components/country/candidates/PersonCandidate.tsx&#45;&gt;styles/country/candidates/PersonCandidate.module.css -->
<g id="edge26" class="edge">
<title>components/country/candidates/PersonCandidate.tsx&#45;&gt;styles/country/candidates/PersonCandidate.module.css</title>
<path fill="none" stroke="#757575" d="M1955.92,-1071.04C2021.19,-1076.18 2097.07,-1082.17 2163.48,-1087.4"/>
<polygon fill="#757575" stroke="#757575" points="2163.15,-1090.89 2173.39,-1088.19 2163.7,-1083.91 2163.15,-1090.89"/>
</g>
<!-- types/country.ts -->
<g id="node24" class="node">
<title>types/country.ts</title>
<path fill="none" stroke="#cfffac" d="M3367.33,-544.54C3367.33,-544.54 3273.42,-544.54 3273.42,-544.54 3269.46,-544.54 3265.5,-540.58 3265.5,-536.62 3265.5,-536.62 3265.5,-528.7 3265.5,-528.7 3265.5,-524.75 3269.46,-520.79 3273.42,-520.79 3273.42,-520.79 3367.33,-520.79 3367.33,-520.79 3371.29,-520.79 3375.25,-524.75 3375.25,-528.7 3375.25,-528.7 3375.25,-536.62 3375.25,-536.62 3375.25,-540.58 3371.29,-544.54 3367.33,-544.54"/>
<text xml:space="preserve" text-anchor="middle" x="3320.38" y="-527.24" font-family="Arial" font-size="14.00" fill="#cfffac">types/country.ts</text>
</g>
<!-- components/country/candidates/PersonCandidate.tsx&#45;&gt;types/country.ts -->
<g id="edge27" class="edge">
<title>components/country/candidates/PersonCandidate.tsx&#45;&gt;types/country.ts</title>
<path fill="none" stroke="#757575" d="M1966.58,-1054.07C1996.43,-1058.33 2026.38,-1066.19 2052.75,-1079.66 2074.64,-1090.85 2066.41,-1111.39 2088.75,-1121.66 2187.22,-1166.95 2471.09,-1146.92 2576.5,-1121.66 2893.12,-1045.8 3015.2,-1034.77 3229.5,-789.66 3290.75,-719.61 3310.94,-605.32 3317.01,-556.25"/>
<polygon fill="#757575" stroke="#757575" points="3320.46,-556.83 3318.12,-546.5 3313.51,-556.04 3320.46,-556.83"/>
</g>
<!-- components/country/candidates/PersonCandidate.tsx&#45;&gt;ui/messages.tsx -->
<g id="edge28" class="edge">
<title>components/country/candidates/PersonCandidate.tsx&#45;&gt;ui/messages.tsx</title>
<path fill="none" stroke="#757575" d="M1927.6,-1046.3C2133.39,-1025.85 2519.48,-984.46 2576.5,-956.66 2602.64,-943.92 2737.43,-803.4 2788.09,-750.05"/>
<polygon fill="#757575" stroke="#757575" points="2790.36,-752.75 2794.7,-743.08 2785.28,-747.93 2790.36,-752.75"/>
</g>
<!-- components/country/charts/PopulationPyramid.tsx&#45;&gt;types/country.ts -->
<g id="edge30" class="edge">
<title>components/country/charts/PopulationPyramid.tsx&#45;&gt;types/country.ts</title>
<path fill="none" stroke="#757575" d="M2364.37,-102.32C2494.31,-52.38 3002.08,119.86 3229.5,-140.66 3278.76,-197.09 3308.58,-434.28 3316.94,-509.6"/>
<polygon fill="#757575" stroke="#757575" points="3313.42,-509.55 3317.98,-519.12 3320.38,-508.8 3313.42,-509.55"/>
</g>
<!-- components/country/charts/PopulationPyramid.tsx&#45;&gt;ui/messages.tsx -->
<g id="edge31" class="edge">
<title>components/country/charts/PopulationPyramid.tsx&#45;&gt;ui/messages.tsx</title>
<path fill="none" stroke="#757575" d="M2364.94,-126.93C2418.42,-149.69 2526.45,-203.89 2576.5,-287.66 2642.21,-397.64 2549.9,-461.88 2612.5,-573.66 2649.33,-639.44 2726.09,-687.85 2771.5,-712.13"/>
<polygon fill="#757575" stroke="#757575" points="2769.69,-715.13 2780.17,-716.66 2772.93,-708.93 2769.69,-715.13"/>
</g>
<!-- styles/country/charts/PopulationPyramid.module.css -->
<g id="node26" class="node">
<title>styles/country/charts/PopulationPyramid.module.css</title>
<path fill="none" stroke="#cfffac" d="M2965.21,-88.54C2965.21,-88.54 2651.54,-88.54 2651.54,-88.54 2647.58,-88.54 2643.62,-84.58 2643.62,-80.62 2643.62,-80.62 2643.62,-72.7 2643.62,-72.7 2643.62,-68.75 2647.58,-64.79 2651.54,-64.79 2651.54,-64.79 2965.21,-64.79 2965.21,-64.79 2969.17,-64.79 2973.12,-68.75 2973.12,-72.7 2973.12,-72.7 2973.12,-80.62 2973.12,-80.62 2973.12,-84.58 2969.17,-88.54 2965.21,-88.54"/>
<text xml:space="preserve" text-anchor="middle" x="2808.38" y="-71.24" font-family="Arial" font-size="14.00" fill="#cfffac">styles/country/charts/PopulationPyramid.module.css</text>
</g>
<!-- components/country/charts/PopulationPyramid.tsx&#45;&gt;styles/country/charts/PopulationPyramid.module.css -->
<g id="edge29" class="edge">
<title>components/country/charts/PopulationPyramid.tsx&#45;&gt;styles/country/charts/PopulationPyramid.module.css</title>
<path fill="none" stroke="#757575" d="M2487.77,-102.3C2537.11,-98.34 2591.93,-93.94 2642.04,-89.93"/>
<polygon fill="#757575" stroke="#757575" points="2642.12,-93.43 2651.81,-89.14 2641.56,-86.45 2642.12,-93.43"/>
</g>
<!-- ui/voters&#45;settings&#45;table.tsx -->
<g id="node27" class="node">
<title>ui/voters&#45;settings&#45;table.tsx</title>
<path fill="none" stroke="#c6c5fe" d="M3213.33,-364.54C3213.33,-364.54 3056.42,-364.54 3056.42,-364.54 3052.46,-364.54 3048.5,-360.58 3048.5,-356.62 3048.5,-356.62 3048.5,-348.7 3048.5,-348.7 3048.5,-344.75 3052.46,-340.79 3056.42,-340.79 3056.42,-340.79 3213.33,-340.79 3213.33,-340.79 3217.29,-340.79 3221.25,-344.75 3221.25,-348.7 3221.25,-348.7 3221.25,-356.62 3221.25,-356.62 3221.25,-360.58 3217.29,-364.54 3213.33,-364.54"/>
<text xml:space="preserve" text-anchor="middle" x="3134.88" y="-347.24" font-family="Arial" font-size="14.00" fill="#c6c5fe">ui/voters&#45;settings&#45;table.tsx</text>
</g>
<!-- components/country/charts/PopulationPyramid.tsx&#45;&gt;ui/voters&#45;settings&#45;table.tsx -->
<g id="edge32" class="edge">
<title>components/country/charts/PopulationPyramid.tsx&#45;&gt;ui/voters&#45;settings&#45;table.tsx</title>
<path fill="none" stroke="#757575" d="M2491.57,-110.44C2633.39,-112.99 2843.4,-132.89 3004.25,-216.66 3056.23,-243.74 3099.1,-299.81 3120.04,-330.83"/>
<polygon fill="#757575" stroke="#757575" points="3117.03,-332.62 3125.45,-339.05 3122.88,-328.77 3117.03,-332.62"/>
</g>
<!-- components/country/descr&#45;block&#45;settings/AddCandidateButton.tsx&#45;&gt;constants/constants.ts -->
<g id="edge38" class="edge">
<title>components/country/descr&#45;block&#45;settings/AddCandidateButton.tsx&#45;&gt;constants/constants.ts</title>
<path fill="none" stroke="#757575" d="M1953.42,-915.01C2112.92,-931.07 2367.34,-966.04 2576.5,-1037.66 2793.86,-1112.09 3028.82,-1263.66 3106.94,-1316.22"/>
<polygon fill="#757575" stroke="#757575" points="3104.59,-1318.86 3114.84,-1321.56 3108.51,-1313.06 3104.59,-1318.86"/>
</g>
<!-- components/country/descr&#45;block&#45;settings/AddCandidateButton.tsx&#45;&gt;store/countryStore.ts -->
<g id="edge39" class="edge">
<title>components/country/descr&#45;block&#45;settings/AddCandidateButton.tsx&#45;&gt;store/countryStore.ts</title>
<path fill="none" stroke="#757575" d="M1849.84,-915.01C1906.93,-925.56 1998.64,-932.04 2052.75,-881.66 2129.12,-810.56 2018.14,-726.49 2088.75,-649.66 2129.39,-605.44 2197.08,-591.79 2250.69,-588.58"/>
<polygon fill="#757575" stroke="#757575" points="2250.56,-592.09 2260.39,-588.12 2250.23,-585.1 2250.56,-592.09"/>
</g>
<!-- components/country/descr&#45;block&#45;settings/AddCandidateButton.tsx&#45;&gt;ui/messages.tsx -->
<g id="edge41" class="edge">
<title>components/country/descr&#45;block&#45;settings/AddCandidateButton.tsx&#45;&gt;ui/messages.tsx</title>
<path fill="none" stroke="#757575" d="M1858.63,-915.02C1914.83,-923.04 1998.34,-925.1 2052.75,-881.66 2094.27,-848.51 2046.74,-800.19 2088.75,-767.66 2139.42,-728.43 2570.5,-727.68 2739.65,-728.92"/>
<polygon fill="#757575" stroke="#757575" points="2739.59,-732.42 2749.62,-729 2739.64,-725.42 2739.59,-732.42"/>
</g>
<!-- styles/country/descr&#45;block&#45;settings/AddCandidateButton.module.css -->
<g id="node32" class="node">
<title>styles/country/descr&#45;block&#45;settings/AddCandidateButton.module.css</title>
<path fill="none" stroke="#cfffac" d="M2536.33,-800.54C2536.33,-800.54 2128.92,-800.54 2128.92,-800.54 2124.96,-800.54 2121,-796.58 2121,-792.62 2121,-792.62 2121,-784.7 2121,-784.7 2121,-780.75 2124.96,-776.79 2128.92,-776.79 2128.92,-776.79 2536.33,-776.79 2536.33,-776.79 2540.29,-776.79 2544.25,-780.75 2544.25,-784.7 2544.25,-784.7 2544.25,-792.62 2544.25,-792.62 2544.25,-796.58 2540.29,-800.54 2536.33,-800.54"/>
<text xml:space="preserve" text-anchor="middle" x="2332.62" y="-783.24" font-family="Arial" font-size="14.00" fill="#cfffac">styles/country/descr&#45;block&#45;settings/AddCandidateButton.module.css</text>
</g>
<!-- components/country/descr&#45;block&#45;settings/AddCandidateButton.tsx&#45;&gt;styles/country/descr&#45;block&#45;settings/AddCandidateButton.module.css -->
<g id="edge40" class="edge">
<title>components/country/descr&#45;block&#45;settings/AddCandidateButton.tsx&#45;&gt;styles/country/descr&#45;block&#45;settings/AddCandidateButton.module.css</title>
<path fill="none" stroke="#757575" d="M1883.21,-915.02C1936.01,-918.36 2003.21,-914.13 2052.75,-881.66 2081.02,-863.13 2060.7,-833.53 2088.75,-814.66 2095.58,-810.07 2102.78,-806.02 2110.24,-802.46"/>
<polygon fill="#757575" stroke="#757575" points="2111.45,-805.75 2119.19,-798.52 2108.62,-799.35 2111.45,-805.75"/>
</g>
<!-- components/country/descr&#45;block&#45;settings/CountryDescr.tsx&#45;&gt;store/countryStore.ts -->
<g id="edge42" class="edge">
<title>components/country/descr&#45;block&#45;settings/CountryDescr.tsx&#45;&gt;store/countryStore.ts</title>
<path fill="none" stroke="#757575" d="M1859.72,-334.31C1916.94,-326.48 2001.34,-325.36 2052.75,-372.66 2116.64,-431.45 2024.99,-505.73 2088.75,-564.66 2132.73,-605.31 2202.08,-609.02 2255.44,-604.19"/>
<polygon fill="#757575" stroke="#757575" points="2255.48,-607.7 2265.06,-603.19 2254.76,-600.74 2255.48,-607.7"/>
</g>
<!-- components/country/descr&#45;block&#45;settings/CountryDescr.tsx&#45;&gt;ui/messages.tsx -->
<g id="edge44" class="edge">
<title>components/country/descr&#45;block&#45;settings/CountryDescr.tsx&#45;&gt;ui/messages.tsx</title>
<path fill="none" stroke="#757575" d="M1847.45,-334.3C1903.81,-323.07 1996.32,-314.84 2052.75,-363.66 2110.5,-413.63 2031.28,-481.38 2088.75,-531.66 2170.58,-603.25 2474.07,-533.21 2576.5,-569.66 2664.12,-600.84 2749.32,-674.36 2787.08,-709.84"/>
<polygon fill="#757575" stroke="#757575" points="2784.47,-712.19 2794.13,-716.55 2789.3,-707.12 2784.47,-712.19"/>
</g>
<!-- styles/country/descr&#45;block&#45;settings/CountryDescr.module.css -->
<g id="node33" class="node">
<title>styles/country/descr&#45;block&#45;settings/CountryDescr.module.css</title>
<path fill="none" stroke="#cfffac" d="M2514.96,-522.54C2514.96,-522.54 2150.29,-522.54 2150.29,-522.54 2146.33,-522.54 2142.38,-518.58 2142.38,-514.62 2142.38,-514.62 2142.38,-506.7 2142.38,-506.7 2142.38,-502.75 2146.33,-498.79 2150.29,-498.79 2150.29,-498.79 2514.96,-498.79 2514.96,-498.79 2518.92,-498.79 2522.88,-502.75 2522.88,-506.7 2522.88,-506.7 2522.88,-514.62 2522.88,-514.62 2522.88,-518.58 2518.92,-522.54 2514.96,-522.54"/>
<text xml:space="preserve" text-anchor="middle" x="2332.62" y="-505.24" font-family="Arial" font-size="14.00" fill="#cfffac">styles/country/descr&#45;block&#45;settings/CountryDescr.module.css</text>
</g>
<!-- components/country/descr&#45;block&#45;settings/CountryDescr.tsx&#45;&gt;styles/country/descr&#45;block&#45;settings/CountryDescr.module.css -->
<g id="edge43" class="edge">
<title>components/country/descr&#45;block&#45;settings/CountryDescr.tsx&#45;&gt;styles/country/descr&#45;block&#45;settings/CountryDescr.module.css</title>
<path fill="none" stroke="#757575" d="M1872.61,-334.29C1928.08,-329.27 2002.86,-332.24 2052.75,-372.66 2093.37,-405.58 2048.2,-451.66 2088.75,-484.66 2129.56,-517.88 2187.87,-525.01 2237.13,-523.53"/>
<polygon fill="#757575" stroke="#757575" points="2237.11,-527.03 2246.95,-523.1 2236.8,-520.04 2237.11,-527.03"/>
</g>
<!-- components/country/descr&#45;block&#45;settings/ElectionModeChoosen.tsx&#45;&gt;constants/constants.ts -->
<g id="edge45" class="edge">
<title>components/country/descr&#45;block&#45;settings/ElectionModeChoosen.tsx&#45;&gt;constants/constants.ts</title>
<path fill="none" stroke="#757575" d="M2010.11,-867.71C2315.24,-882.14 2858.97,-925.18 3004.25,-1050.66 3087.02,-1122.15 3119.84,-1257.39 3130.03,-1311.46"/>
<polygon fill="#757575" stroke="#757575" points="3126.54,-1311.84 3131.75,-1321.06 3133.43,-1310.6 3126.54,-1311.84"/>
</g>
<!-- components/country/descr&#45;block&#45;settings/ElectionModeChoosen.tsx&#45;&gt;store/countryStore.ts -->
<g id="edge46" class="edge">
<title>components/country/descr&#45;block&#45;settings/ElectionModeChoosen.tsx&#45;&gt;store/countryStore.ts</title>
<path fill="none" stroke="#757575" d="M1858.32,-873.03C1915.72,-881.24 2001.37,-882.97 2052.75,-834.66 2124.29,-767.39 2017.36,-684.09 2088.75,-616.66 2132.86,-575 2203.52,-571.79 2257.29,-577.06"/>
<polygon fill="#757575" stroke="#757575" points="2256.66,-580.51 2266.98,-578.13 2257.43,-573.55 2256.66,-580.51"/>
</g>
<!-- components/country/descr&#45;block&#45;settings/ElectionModeChoosen.tsx&#45;&gt;types/country.ts -->
<g id="edge48" class="edge">
<title>components/country/descr&#45;block&#45;settings/ElectionModeChoosen.tsx&#45;&gt;types/country.ts</title>
<path fill="none" stroke="#757575" d="M1860.19,-873.01C1917.35,-880.71 2001.34,-881.64 2052.75,-834.66 2114.59,-778.16 2026.23,-705.41 2088.75,-649.66 2129.32,-613.49 2522.33,-616.18 2576.5,-611.66 2866.86,-587.46 2941.81,-599.81 3229.5,-553.66 3239.95,-551.99 3250.99,-549.78 3261.62,-547.42"/>
<polygon fill="#757575" stroke="#757575" points="3262.07,-550.91 3271.04,-545.27 3260.51,-544.09 3262.07,-550.91"/>
</g>
<!-- components/country/descr&#45;block&#45;settings/ElectionModeChoosen.tsx&#45;&gt;ui/messages.tsx -->
<g id="edge49" class="edge">
<title>components/country/descr&#45;block&#45;settings/ElectionModeChoosen.tsx&#45;&gt;ui/messages.tsx</title>
<path fill="none" stroke="#757575" d="M1878.3,-873.03C1932.86,-877.04 2004,-872.79 2052.75,-834.66 2089.96,-805.56 2050.2,-761.96 2088.75,-734.66 2191.92,-661.62 2582.02,-701.08 2740.17,-720.7"/>
<polygon fill="#757575" stroke="#757575" points="2739.28,-724.12 2749.64,-721.89 2740.16,-717.17 2739.28,-724.12"/>
</g>
<!-- styles/country/descr&#45;block&#45;settings/ElectionModeChoosen.module.css -->
<g id="node34" class="node">
<title>styles/country/descr&#45;block&#45;settings/ElectionModeChoosen.module.css</title>
<path fill="none" stroke="#cfffac" d="M2542.33,-682.54C2542.33,-682.54 2122.92,-682.54 2122.92,-682.54 2118.96,-682.54 2115,-678.58 2115,-674.62 2115,-674.62 2115,-666.7 2115,-666.7 2115,-662.75 2118.96,-658.79 2122.92,-658.79 2122.92,-658.79 2542.33,-658.79 2542.33,-658.79 2546.29,-658.79 2550.25,-662.75 2550.25,-666.7 2550.25,-666.7 2550.25,-674.62 2550.25,-674.62 2550.25,-678.58 2546.29,-682.54 2542.33,-682.54"/>
<text xml:space="preserve" text-anchor="middle" x="2332.62" y="-665.24" font-family="Arial" font-size="14.00" fill="#cfffac">styles/country/descr&#45;block&#45;settings/ElectionModeChoosen.module.css</text>
</g>
<!-- components/country/descr&#45;block&#45;settings/ElectionModeChoosen.tsx&#45;&gt;styles/country/descr&#45;block&#45;settings/ElectionModeChoosen.module.css -->
<g id="edge47" class="edge">
<title>components/country/descr&#45;block&#45;settings/ElectionModeChoosen.tsx&#45;&gt;styles/country/descr&#45;block&#45;settings/ElectionModeChoosen.module.css</title>
<path fill="none" stroke="#757575" d="M1865.87,-873.04C1922.3,-879.42 2001.82,-878.34 2052.75,-834.66 2100.87,-793.4 2040.73,-738.03 2088.75,-696.66 2131.61,-659.74 2195.76,-654.24 2247.37,-657.44"/>
<polygon fill="#757575" stroke="#757575" points="2247.1,-660.93 2257.34,-658.19 2247.63,-653.95 2247.1,-660.93"/>
</g>
<!-- components/country/map&#45;container&#45;settings/AddVoterButton.tsx&#45;&gt;store/countryStore.ts -->
<g id="edge50" class="edge">
<title>components/country/map&#45;container&#45;settings/AddVoterButton.tsx&#45;&gt;store/countryStore.ts</title>
<path fill="none" stroke="#757575" d="M1400.84,-610.29C1457.32,-605.54 1515.48,-600.95 1543.25,-599.66 1801.52,-587.74 2107.86,-588.51 2250.73,-589.74"/>
<polygon fill="#757575" stroke="#757575" points="2250.43,-593.23 2260.46,-589.82 2250.49,-586.23 2250.43,-593.23"/>
</g>
<!-- styles/country/map&#45;container&#45;settings/AddVoterButton.module.css -->
<g id="node35" class="node">
<title>styles/country/map&#45;container&#45;settings/AddVoterButton.module.css</title>
<path fill="none" stroke="#cfffac" d="M1995.71,-632.54C1995.71,-632.54 1600.29,-632.54 1600.29,-632.54 1596.33,-632.54 1592.38,-628.58 1592.38,-624.62 1592.38,-624.62 1592.38,-616.7 1592.38,-616.7 1592.38,-612.75 1596.33,-608.79 1600.29,-608.79 1600.29,-608.79 1995.71,-608.79 1995.71,-608.79 1999.67,-608.79 2003.62,-612.75 2003.62,-616.7 2003.62,-616.7 2003.62,-624.62 2003.62,-624.62 2003.62,-628.58 1999.67,-632.54 1995.71,-632.54"/>
<text xml:space="preserve" text-anchor="middle" x="1798" y="-615.24" font-family="Arial" font-size="14.00" fill="#cfffac">styles/country/map&#45;container&#45;settings/AddVoterButton.module.css</text>
</g>
<!-- components/country/map&#45;container&#45;settings/AddVoterButton.tsx&#45;&gt;styles/country/map&#45;container&#45;settings/AddVoterButton.module.css -->
<g id="edge51" class="edge">
<title>components/country/map&#45;container&#45;settings/AddVoterButton.tsx&#45;&gt;styles/country/map&#45;container&#45;settings/AddVoterButton.module.css</title>
<path fill="none" stroke="#757575" d="M1458.5,-621.92C1498.39,-621.77 1540.48,-621.62 1580.92,-621.47"/>
<polygon fill="#757575" stroke="#757575" points="1580.78,-624.97 1590.76,-621.43 1580.75,-617.97 1580.78,-624.97"/>
</g>
<!-- components/country/map&#45;container&#45;settings/Map.tsx&#45;&gt;constants/constants.ts -->
<g id="edge53" class="edge">
<title>components/country/map&#45;container&#45;settings/Map.tsx&#45;&gt;constants/constants.ts</title>
<path fill="none" stroke="#757575" d="M1272.02,-1092.87C1309.46,-1128.51 1425.27,-1232.76 1543.25,-1277.66 1988.61,-1447.15 2136.02,-1350.75 2612.5,-1356.66 2786.6,-1358.82 2830.75,-1371.28 3004.25,-1356.66 3023.27,-1355.06 3043.69,-1352.16 3062.58,-1348.98"/>
<polygon fill="#757575" stroke="#757575" points="3063.06,-1352.44 3072.31,-1347.28 3061.86,-1345.55 3063.06,-1352.44"/>
</g>
<!-- components/country/map&#45;container&#45;settings/Map.tsx&#45;&gt;store/countryStore.ts -->
<g id="edge55" class="edge">
<title>components/country/map&#45;container&#45;settings/Map.tsx&#45;&gt;store/countryStore.ts</title>
<path fill="none" stroke="#757575" d="M1268.88,-1068.45C1301.41,-1027.17 1414.39,-892.52 1543.25,-839.66 1648.29,-796.57 1967.88,-877.08 2052.75,-801.66 2115.36,-746.02 2027.04,-673.31 2088.75,-616.66 2132.63,-576.39 2201.46,-572.48 2254.66,-577.16"/>
<polygon fill="#757575" stroke="#757575" points="2254.3,-580.64 2264.6,-578.16 2255,-573.67 2254.3,-580.64"/>
</g>
<!-- components/country/map&#45;container&#45;settings/Map.tsx&#45;&gt;types/country.ts -->
<g id="edge57" class="edge">
<title>components/country/map&#45;container&#45;settings/Map.tsx&#45;&gt;types/country.ts</title>
<path fill="none" stroke="#757575" d="M1316.42,-1093.03C1475.84,-1126.56 1940.66,-1216.66 2331.62,-1216.66 2331.62,-1216.66 2331.62,-1216.66 2809.38,-1216.66 2822.52,-1216.66 3214.99,-912.9 3229.5,-890.66 3301.42,-780.44 3315.79,-616.64 3318.66,-556.18"/>
<polygon fill="#757575" stroke="#757575" points="3322.15,-556.55 3319.05,-546.42 3315.15,-556.27 3322.15,-556.55"/>
</g>
<!-- components/country/map&#45;container&#45;settings/Map.tsx&#45;&gt;ui/messages.tsx -->
<g id="edge58" class="edge">
<title>components/country/map&#45;container&#45;settings/Map.tsx&#45;&gt;ui/messages.tsx</title>
<path fill="none" stroke="#757575" d="M1297.14,-1068.41C1351.05,-1051.36 1453.65,-1020.77 1543.25,-1004.66 1767.11,-964.43 1828,-991.58 2052.75,-956.66 2288.15,-920.09 2351.49,-920.93 2576.5,-842.66 2651.46,-816.59 2733.69,-772.21 2776.91,-747.54"/>
<polygon fill="#757575" stroke="#757575" points="2778.55,-750.64 2785.47,-742.62 2775.06,-744.57 2778.55,-750.64"/>
</g>
<!-- components/country/map&#45;container&#45;settings/VotingGroupCircle.tsx -->
<g id="node36" class="node">
<title>components/country/map&#45;container&#45;settings/VotingGroupCircle.tsx</title>
<path fill="none" stroke="#c6c5fe" d="M1997.58,-1268.54C1997.58,-1268.54 1598.42,-1268.54 1598.42,-1268.54 1594.46,-1268.54 1590.5,-1264.58 1590.5,-1260.62 1590.5,-1260.62 1590.5,-1252.7 1590.5,-1252.7 1590.5,-1248.75 1594.46,-1244.79 1598.42,-1244.79 1598.42,-1244.79 1997.58,-1244.79 1997.58,-1244.79 2001.54,-1244.79 2005.5,-1248.75 2005.5,-1252.7 2005.5,-1252.7 2005.5,-1260.62 2005.5,-1260.62 2005.5,-1264.58 2001.54,-1268.54 1997.58,-1268.54"/>
<text xml:space="preserve" text-anchor="middle" x="1798" y="-1251.24" font-family="Arial" font-size="14.00" fill="#c6c5fe">components/country/map&#45;container&#45;settings/VotingGroupCircle.tsx</text>
</g>
<!-- components/country/map&#45;container&#45;settings/Map.tsx&#45;&gt;components/country/map&#45;container&#45;settings/VotingGroupCircle.tsx -->
<g id="edge52" class="edge">
<title>components/country/map&#45;container&#45;settings/Map.tsx&#45;&gt;components/country/map&#45;container&#45;settings/VotingGroupCircle.tsx</title>
<path fill="none" stroke="#757575" d="M1276.71,-1092.85C1319.44,-1122.39 1434.73,-1197.78 1543.25,-1230.66 1558.4,-1235.25 1574.27,-1239.07 1590.36,-1242.24"/>
<polygon fill="#757575" stroke="#757575" points="1589.57,-1245.65 1600.04,-1244.05 1590.85,-1238.77 1589.57,-1245.65"/>
</g>
<!-- constants/country_borders.ts -->
<g id="node37" class="node">
<title>constants/country_borders.ts</title>
<path fill="none" stroke="#cfffac" d="M3221.58,-780.54C3221.58,-780.54 3048.17,-780.54 3048.17,-780.54 3044.21,-780.54 3040.25,-776.58 3040.25,-772.62 3040.25,-772.62 3040.25,-764.7 3040.25,-764.7 3040.25,-760.75 3044.21,-756.79 3048.17,-756.79 3048.17,-756.79 3221.58,-756.79 3221.58,-756.79 3225.54,-756.79 3229.5,-760.75 3229.5,-764.7 3229.5,-764.7 3229.5,-772.62 3229.5,-772.62 3229.5,-776.58 3225.54,-780.54 3221.58,-780.54"/>
<text xml:space="preserve" text-anchor="middle" x="3134.88" y="-763.24" font-family="Arial" font-size="14.00" fill="#cfffac">constants/country_borders.ts</text>
</g>
<!-- components/country/map&#45;container&#45;settings/Map.tsx&#45;&gt;constants/country_borders.ts -->
<g id="edge54" class="edge">
<title>components/country/map&#45;container&#45;settings/Map.tsx&#45;&gt;constants/country_borders.ts</title>
<path fill="none" stroke="#757575" d="M1331.92,-1068.34C1389.16,-1058.92 1471.13,-1046.16 1543.25,-1037.66 1768.94,-1011.07 1827.18,-1022.23 2052.75,-994.66 2286.76,-966.06 2345.65,-958.48 2576.5,-910.66 2763.16,-872 2981.36,-812.04 3080.28,-784.04"/>
<polygon fill="#757575" stroke="#757575" points="3081.05,-787.46 3089.72,-781.36 3079.14,-780.73 3081.05,-787.46"/>
</g>
<!-- styles/country/map&#45;container&#45;settings/Map.module.css -->
<g id="node38" class="node">
<title>styles/country/map&#45;container&#45;settings/Map.module.css</title>
<path fill="none" stroke="#cfffac" d="M1961.96,-1112.54C1961.96,-1112.54 1634.04,-1112.54 1634.04,-1112.54 1630.08,-1112.54 1626.12,-1108.58 1626.12,-1104.62 1626.12,-1104.62 1626.12,-1096.7 1626.12,-1096.7 1626.12,-1092.75 1630.08,-1088.79 1634.04,-1088.79 1634.04,-1088.79 1961.96,-1088.79 1961.96,-1088.79 1965.92,-1088.79 1969.88,-1092.75 1969.88,-1096.7 1969.88,-1096.7 1969.88,-1104.62 1969.88,-1104.62 1969.88,-1108.58 1965.92,-1112.54 1961.96,-1112.54"/>
<text xml:space="preserve" text-anchor="middle" x="1798" y="-1095.24" font-family="Arial" font-size="14.00" fill="#cfffac">styles/country/map&#45;container&#45;settings/Map.module.css</text>
</g>
<!-- components/country/map&#45;container&#45;settings/Map.tsx&#45;&gt;styles/country/map&#45;container&#45;settings/Map.module.css -->
<g id="edge56" class="edge">
<title>components/country/map&#45;container&#45;settings/Map.tsx&#45;&gt;styles/country/map&#45;container&#45;settings/Map.module.css</title>
<path fill="none" stroke="#757575" d="M1424.79,-1086.81C1484.76,-1089.05 1552.86,-1091.58 1614.25,-1093.86"/>
<polygon fill="#757575" stroke="#757575" points="1614,-1097.36 1624.12,-1094.23 1614.26,-1090.36 1614,-1097.36"/>
</g>
<!-- components/country/map&#45;container&#45;settings/VotersTable.tsx&#45;&gt;store/countryStore.ts -->
<g id="edge68" class="edge">
<title>components/country/map&#45;container&#45;settings/VotersTable.tsx&#45;&gt;store/countryStore.ts</title>
<path fill="none" stroke="#757575" d="M1293.47,-297.01C1346.17,-315.62 1451.17,-350.49 1543.25,-367.66 1654.95,-388.5 1966.78,-336.37 2052.75,-410.66 2105.93,-456.62 2036.09,-518.11 2088.75,-564.66 2132.19,-603.06 2198.5,-607.86 2250.87,-604"/>
<polygon fill="#757575" stroke="#757575" points="2250.99,-607.5 2260.65,-603.15 2250.38,-600.53 2250.99,-607.5"/>
</g>
<!-- components/country/map&#45;container&#45;settings/VotersTable.tsx&#45;&gt;types/country.ts -->
<g id="edge69" class="edge">
<title>components/country/map&#45;container&#45;settings/VotersTable.tsx&#45;&gt;types/country.ts</title>
<path fill="none" stroke="#757575" d="M1319.06,-272.32C1480.95,-239.87 1943.04,-154.66 2331.62,-154.66 2331.62,-154.66 2331.62,-154.66 2809.38,-154.66 2999.37,-154.66 3090.3,-104.35 3229.5,-233.66 3310.17,-308.61 3319.41,-452.88 3319.78,-509.27"/>
<polygon fill="#757575" stroke="#757575" points="3316.28,-508.96 3319.75,-518.97 3323.28,-508.98 3316.28,-508.96"/>
</g>
<!-- components/country/map&#45;container&#45;settings/RegionTable.tsx -->
<g id="node40" class="node">
<title>components/country/map&#45;container&#45;settings/RegionTable.tsx</title>
<path fill="none" stroke="#c6c5fe" d="M1979.96,-274.54C1979.96,-274.54 1616.04,-274.54 1616.04,-274.54 1612.08,-274.54 1608.12,-270.58 1608.12,-266.62 1608.12,-266.62 1608.12,-258.7 1608.12,-258.7 1608.12,-254.75 1612.08,-250.79 1616.04,-250.79 1616.04,-250.79 1979.96,-250.79 1979.96,-250.79 1983.92,-250.79 1987.88,-254.75 1987.88,-258.7 1987.88,-258.7 1987.88,-266.62 1987.88,-266.62 1987.88,-270.58 1983.92,-274.54 1979.96,-274.54"/>
<text xml:space="preserve" text-anchor="middle" x="1798" y="-257.24" font-family="Arial" font-size="14.00" fill="#c6c5fe">components/country/map&#45;container&#45;settings/RegionTable.tsx</text>
</g>
<!-- components/country/map&#45;container&#45;settings/VotersTable.tsx&#45;&gt;components/country/map&#45;container&#45;settings/RegionTable.tsx -->
<g id="edge67" class="edge">
<title>components/country/map&#45;container&#45;settings/VotersTable.tsx&#45;&gt;components/country/map&#45;container&#45;settings/RegionTable.tsx</title>
<path fill="none" stroke="#757575" d="M1446.36,-277.02C1494.86,-275.03 1547.3,-272.88 1596.48,-270.87"/>
<polygon fill="#757575" stroke="#757575" points="1596.55,-274.37 1606.4,-270.46 1596.26,-267.38 1596.55,-274.37"/>
</g>
<!-- components/country/settings&#45;panel/CopyCountryButton.tsx&#45;&gt;store/countryStore.ts -->
<g id="edge74" class="edge">
<title>components/country/settings&#45;panel/CopyCountryButton.tsx&#45;&gt;store/countryStore.ts</title>
<path fill="none" stroke="#757575" d="M1415.89,-526.31C1457.27,-523.56 1501.92,-521.05 1543.25,-519.66 1656.41,-515.88 1950.7,-470.62 2052.75,-519.66 2075.83,-530.76 2066.29,-552.35 2088.75,-564.66 2137.91,-591.61 2201.07,-597.66 2250.66,-597.21"/>
<polygon fill="#757575" stroke="#757575" points="2250.54,-600.71 2260.47,-597.02 2250.41,-593.71 2250.54,-600.71"/>
</g>
<!-- styles/country/settings&#45;panel/CopyCountryButton.module.css -->
<g id="node44" class="node">
<title>styles/country/settings&#45;panel/CopyCountryButton.module.css</title>
<path fill="none" stroke="#cfffac" d="M1980.33,-552.54C1980.33,-552.54 1615.67,-552.54 1615.67,-552.54 1611.71,-552.54 1607.75,-548.58 1607.75,-544.62 1607.75,-544.62 1607.75,-536.7 1607.75,-536.7 1607.75,-532.75 1611.71,-528.79 1615.67,-528.79 1615.67,-528.79 1980.33,-528.79 1980.33,-528.79 1984.29,-528.79 1988.25,-532.75 1988.25,-536.7 1988.25,-536.7 1988.25,-544.62 1988.25,-544.62 1988.25,-548.58 1984.29,-552.54 1980.33,-552.54"/>
<text xml:space="preserve" text-anchor="middle" x="1798" y="-535.24" font-family="Arial" font-size="14.00" fill="#cfffac">styles/country/settings&#45;panel/CopyCountryButton.module.css</text>
</g>
<!-- components/country/settings&#45;panel/CopyCountryButton.tsx&#45;&gt;styles/country/settings&#45;panel/CopyCountryButton.module.css -->
<g id="edge75" class="edge">
<title>components/country/settings&#45;panel/CopyCountryButton.tsx&#45;&gt;styles/country/settings&#45;panel/CopyCountryButton.module.css</title>
<path fill="none" stroke="#757575" d="M1442.97,-539.35C1492.31,-539.53 1545.93,-539.73 1596.16,-539.92"/>
<polygon fill="#757575" stroke="#757575" points="1595.96,-543.42 1605.98,-539.95 1595.99,-536.42 1595.96,-543.42"/>
</g>
<!-- components/country/settings&#45;panel/CountryNameInput.tsx&#45;&gt;store/countryStore.ts -->
<g id="edge76" class="edge">
<title>components/country/settings&#45;panel/CountryNameInput.tsx&#45;&gt;store/countryStore.ts</title>
<path fill="none" stroke="#757575" d="M1441.29,-671.31C1639.66,-676.46 1943.56,-677.6 2052.75,-641.66 2071.25,-635.57 2070.5,-623.47 2088.75,-616.66 2140.44,-597.4 2202.3,-591 2250.66,-589.36"/>
<polygon fill="#757575" stroke="#757575" points="2250.6,-592.86 2260.5,-589.1 2250.41,-585.87 2250.6,-592.86"/>
</g>
<!-- styles/country/settings&#45;panel/CountryNameInput.module.css -->
<g id="node45" class="node">
<title>styles/country/settings&#45;panel/CountryNameInput.module.css</title>
<path fill="none" stroke="#cfffac" d="M1978.46,-712.54C1978.46,-712.54 1617.54,-712.54 1617.54,-712.54 1613.58,-712.54 1609.62,-708.58 1609.62,-704.62 1609.62,-704.62 1609.62,-696.7 1609.62,-696.7 1609.62,-692.75 1613.58,-688.79 1617.54,-688.79 1617.54,-688.79 1978.46,-688.79 1978.46,-688.79 1982.42,-688.79 1986.38,-692.75 1986.38,-696.7 1986.38,-696.7 1986.38,-704.62 1986.38,-704.62 1986.38,-708.58 1982.42,-712.54 1978.46,-712.54"/>
<text xml:space="preserve" text-anchor="middle" x="1798" y="-695.24" font-family="Arial" font-size="14.00" fill="#cfffac">styles/country/settings&#45;panel/CountryNameInput.module.css</text>
</g>
<!-- components/country/settings&#45;panel/CountryNameInput.tsx&#45;&gt;styles/country/settings&#45;panel/CountryNameInput.module.css -->
<g id="edge77" class="edge">
<title>components/country/settings&#45;panel/CountryNameInput.tsx&#45;&gt;styles/country/settings&#45;panel/CountryNameInput.module.css</title>
<path fill="none" stroke="#757575" d="M1441.1,-676.83C1492.61,-680.28 1548.92,-684.05 1601.24,-687.55"/>
<polygon fill="#757575" stroke="#757575" points="1600.96,-691.04 1611.17,-688.22 1601.43,-684.06 1600.96,-691.04"/>
</g>
<!-- components/country/settings&#45;panel/DeleteCountryButton.tsx&#45;&gt;store/countryStore.ts -->
<g id="edge78" class="edge">
<title>components/country/settings&#45;panel/DeleteCountryButton.tsx&#45;&gt;store/countryStore.ts</title>
<path fill="none" stroke="#757575" d="M1446.63,-747.24C1665.78,-753.24 2005.14,-756.54 2052.75,-721.66 2092.55,-692.51 2050.19,-647.44 2088.75,-616.66 2133.59,-580.88 2198.85,-575.65 2250.44,-578.68"/>
<polygon fill="#757575" stroke="#757575" points="2250.16,-582.17 2260.38,-579.39 2250.66,-575.19 2250.16,-582.17"/>
</g>
<!-- styles/country/settings&#45;panel/DeleteCountryButton.module.css -->
<g id="node46" class="node">
<title>styles/country/settings&#45;panel/DeleteCountryButton.module.css</title>
<path fill="none" stroke="#cfffac" d="M1984.08,-792.54C1984.08,-792.54 1611.92,-792.54 1611.92,-792.54 1607.96,-792.54 1604,-788.58 1604,-784.62 1604,-784.62 1604,-776.7 1604,-776.7 1604,-772.75 1607.96,-768.79 1611.92,-768.79 1611.92,-768.79 1984.08,-768.79 1984.08,-768.79 1988.04,-768.79 1992,-772.75 1992,-776.7 1992,-776.7 1992,-784.62 1992,-784.62 1992,-788.58 1988.04,-792.54 1984.08,-792.54"/>
<text xml:space="preserve" text-anchor="middle" x="1798" y="-775.24" font-family="Arial" font-size="14.00" fill="#cfffac">styles/country/settings&#45;panel/DeleteCountryButton.module.css</text>
</g>
<!-- components/country/settings&#45;panel/DeleteCountryButton.tsx&#45;&gt;styles/country/settings&#45;panel/DeleteCountryButton.module.css -->
<g id="edge79" class="edge">
<title>components/country/settings&#45;panel/DeleteCountryButton.tsx&#45;&gt;styles/country/settings&#45;panel/DeleteCountryButton.module.css</title>
<path fill="none" stroke="#757575" d="M1425.52,-753.02C1487.05,-757.6 1557.04,-762.81 1619.55,-767.46"/>
<polygon fill="#757575" stroke="#757575" points="1618.98,-770.92 1629.21,-768.18 1619.5,-763.94 1618.98,-770.92"/>
</g>
<!-- store/countryStore.ts&#45;&gt;constants/constants.ts -->
<g id="edge91" class="edge">
<title>store/countryStore.ts&#45;&gt;constants/constants.ts</title>
<path fill="none" stroke="#757575" d="M2403.1,-593.29C2556.91,-600.56 2919.31,-626.23 3004.25,-708.66 3049.02,-752.11 3115.14,-1202.15 3130.57,-1311.04"/>
<polygon fill="#757575" stroke="#757575" points="3127.09,-1311.41 3131.95,-1320.82 3134.02,-1310.43 3127.09,-1311.41"/>
</g>
<!-- store/countryStore.ts&#45;&gt;types/country.ts -->
<g id="edge92" class="edge">
<title>store/countryStore.ts&#45;&gt;types/country.ts</title>
<path fill="none" stroke="#757575" d="M2377.61,-578.38C2432.18,-563.84 2528.34,-540.47 2612.5,-531.66 2847.45,-507.08 3128.72,-520.03 3253.83,-527.97"/>
<polygon fill="#757575" stroke="#757575" points="3253.36,-531.45 3263.57,-528.6 3253.82,-524.46 3253.36,-531.45"/>
</g>
<!-- store/countryStore.ts&#45;&gt;ui/messages.tsx -->
<g id="edge93" class="edge">
<title>store/countryStore.ts&#45;&gt;ui/messages.tsx</title>
<path fill="none" stroke="#757575" d="M2390.96,-602.97C2440.43,-613.98 2513.64,-631.18 2576.5,-649.66 2642.86,-669.17 2718.35,-696.28 2764.42,-713.4"/>
<polygon fill="#757575" stroke="#757575" points="2763.18,-716.67 2773.77,-716.89 2765.63,-710.12 2763.18,-716.67"/>
</g>
<!-- utils/countryTypesFunctions.ts -->
<g id="node53" class="node">
<title>utils/countryTypesFunctions.ts</title>
<path fill="none" stroke="#c6c5fe" d="M2898.83,-564.54C2898.83,-564.54 2717.92,-564.54 2717.92,-564.54 2713.96,-564.54 2710,-560.58 2710,-556.62 2710,-556.62 2710,-548.7 2710,-548.7 2710,-544.75 2713.96,-540.79 2717.92,-540.79 2717.92,-540.79 2898.83,-540.79 2898.83,-540.79 2902.79,-540.79 2906.75,-544.75 2906.75,-548.7 2906.75,-548.7 2906.75,-556.62 2906.75,-556.62 2906.75,-560.58 2902.79,-564.54 2898.83,-564.54"/>
<text xml:space="preserve" text-anchor="middle" x="2808.38" y="-547.24" font-family="Arial" font-size="14.00" fill="#c6c5fe">utils/countryTypesFunctions.ts</text>
</g>
<!-- store/countryStore.ts&#45;&gt;utils/countryTypesFunctions.ts -->
<g id="edge94" class="edge">
<title>store/countryStore.ts&#45;&gt;utils/countryTypesFunctions.ts</title>
<path fill="none" stroke="#757575" d="M2403.27,-585.08C2480.97,-578.84 2607.65,-568.68 2698.47,-561.4"/>
<polygon fill="#757575" stroke="#757575" points="2698.72,-564.89 2708.41,-560.6 2698.16,-557.91 2698.72,-564.89"/>
</g>
<!-- ui/messages.tsx&#45;&gt;constants/country_borders.ts -->
<g id="edge95" class="edge">
<title>ui/messages.tsx&#45;&gt;constants/country_borders.ts</title>
<path fill="none" stroke="#757575" d="M2865.53,-736.41C2910.32,-741.8 2974.33,-749.49 3028.59,-756.01"/>
<polygon fill="#757575" stroke="#757575" points="3028.17,-759.48 3038.51,-757.2 3029,-752.53 3028.17,-759.48"/>
</g>
<!-- ui/voters&#45;settings&#45;table.tsx&#45;&gt;types/country.ts -->
<g id="edge96" class="edge">
<title>ui/voters&#45;settings&#45;table.tsx&#45;&gt;types/country.ts</title>
<path fill="none" stroke="#757575" d="M3148.49,-365.04C3179.8,-395.75 3261.32,-475.71 3299.32,-512.99"/>
<polygon fill="#757575" stroke="#757575" points="3296.49,-515.11 3306.08,-519.62 3301.39,-510.12 3296.49,-515.11"/>
</g>
<!-- components/country/create&#45;country&#45;container/CreateCountryButton.tsx -->
<g id="node28" class="node">
<title>components/country/create&#45;country&#45;container/CreateCountryButton.tsx</title>
<path fill="none" stroke="#c6c5fe" d="M2009.96,-316.54C2009.96,-316.54 1586.04,-316.54 1586.04,-316.54 1582.08,-316.54 1578.12,-312.58 1578.12,-308.62 1578.12,-308.62 1578.12,-300.7 1578.12,-300.7 1578.12,-296.75 1582.08,-292.79 1586.04,-292.79 1586.04,-292.79 2009.96,-292.79 2009.96,-292.79 2013.92,-292.79 2017.88,-296.75 2017.88,-300.7 2017.88,-300.7 2017.88,-308.62 2017.88,-308.62 2017.88,-312.58 2013.92,-316.54 2009.96,-316.54"/>
<text xml:space="preserve" text-anchor="middle" x="1798" y="-299.24" font-family="Arial" font-size="14.00" fill="#c6c5fe">components/country/create&#45;country&#45;container/CreateCountryButton.tsx</text>
</g>
<!-- components/country/create&#45;country&#45;container/CreateCountryButton.tsx&#45;&gt;store/countryStore.ts -->
<g id="edge33" class="edge">
<title>components/country/create&#45;country&#45;container/CreateCountryButton.tsx&#45;&gt;store/countryStore.ts</title>
<path fill="none" stroke="#757575" d="M1850.69,-292.32C1907.69,-282.05 1998.49,-276.1 2052.75,-325.66 2121.37,-388.35 2025.21,-463.83 2088.75,-531.66 2129.81,-575.49 2197.46,-589.18 2250.95,-592.5"/>
<polygon fill="#757575" stroke="#757575" points="2250.46,-595.98 2260.63,-592.98 2250.81,-588.99 2250.46,-595.98"/>
</g>
<!-- components/country/create&#45;country&#45;container/CreateCountryButton.tsx&#45;&gt;ui/messages.tsx -->
<g id="edge35" class="edge">
<title>components/country/create&#45;country&#45;container/CreateCountryButton.tsx&#45;&gt;ui/messages.tsx</title>
<path fill="none" stroke="#757575" d="M1856.76,-292.29C1913.17,-283.78 1998.26,-280.92 2052.75,-325.66 2097.76,-362.62 2043.65,-414.81 2088.75,-451.66 2172.93,-520.46 2488.13,-426.33 2576.5,-489.66 2609.51,-513.32 2587.91,-541.34 2612.5,-573.66 2658.8,-634.52 2733.85,-685.6 2776.03,-711.47"/>
<polygon fill="#757575" stroke="#757575" points="2774.09,-714.38 2784.46,-716.56 2777.71,-708.39 2774.09,-714.38"/>
</g>
<!-- styles/country/create&#45;country&#45;container/CreateCountryButton.module.css -->
<g id="node29" class="node">
<title>styles/country/create&#45;country&#45;container/CreateCountryButton.module.css</title>
<path fill="none" stroke="#cfffac" d="M2550.58,-442.54C2550.58,-442.54 2114.67,-442.54 2114.67,-442.54 2110.71,-442.54 2106.75,-438.58 2106.75,-434.62 2106.75,-434.62 2106.75,-426.7 2106.75,-426.7 2106.75,-422.75 2110.71,-418.79 2114.67,-418.79 2114.67,-418.79 2550.58,-418.79 2550.58,-418.79 2554.54,-418.79 2558.5,-422.75 2558.5,-426.7 2558.5,-426.7 2558.5,-434.62 2558.5,-434.62 2558.5,-438.58 2554.54,-442.54 2550.58,-442.54"/>
<text xml:space="preserve" text-anchor="middle" x="2332.62" y="-425.24" font-family="Arial" font-size="14.00" fill="#cfffac">styles/country/create&#45;country&#45;container/CreateCountryButton.module.css</text>
</g>
<!-- components/country/create&#45;country&#45;container/CreateCountryButton.tsx&#45;&gt;styles/country/create&#45;country&#45;container/CreateCountryButton.module.css -->
<g id="edge34" class="edge">
<title>components/country/create&#45;country&#45;container/CreateCountryButton.tsx&#45;&gt;styles/country/create&#45;country&#45;container/CreateCountryButton.module.css</title>
<path fill="none" stroke="#757575" d="M1871.18,-292.29C1925.88,-286.95 2000.32,-288.79 2052.75,-325.66 2084.31,-347.86 2057.46,-382.09 2088.75,-404.66 2092.93,-407.68 2097.25,-410.46 2101.7,-413.03"/>
<polygon fill="#757575" stroke="#757575" points="2099.84,-416 2110.31,-417.62 2103.13,-409.83 2099.84,-416"/>
</g>
<!-- components/country/create&#45;country&#45;container/CreateCountryButtonContainer.tsx&#45;&gt;components/country/create&#45;country&#45;container/CreateCountryButton.tsx -->
<g id="edge36" class="edge">
<title>components/country/create&#45;country&#45;container/CreateCountryButtonContainer.tsx&#45;&gt;components/country/create&#45;country&#45;container/CreateCountryButton.tsx</title>
<path fill="none" stroke="#757575" d="M1275.09,-88.81C1329.92,-131.41 1512.25,-272.12 1543.25,-283.66 1550.87,-286.5 1558.7,-289.04 1566.68,-291.3"/>
<polygon fill="#757575" stroke="#757575" points="1565.62,-294.64 1576.18,-293.84 1567.42,-287.88 1565.62,-294.64"/>
</g>
<!-- styles/country/create&#45;country&#45;container/CreateCountryButtonContainer.module.css -->
<g id="node31" class="node">
<title>styles/country/create&#45;country&#45;container/CreateCountryButtonContainer.module.css</title>
<path fill="none" stroke="#cfffac" d="M2044.83,-88.54C2044.83,-88.54 1551.17,-88.54 1551.17,-88.54 1547.21,-88.54 1543.25,-84.58 1543.25,-80.62 1543.25,-80.62 1543.25,-72.7 1543.25,-72.7 1543.25,-68.75 1547.21,-64.79 1551.17,-64.79 1551.17,-64.79 2044.83,-64.79 2044.83,-64.79 2048.79,-64.79 2052.75,-68.75 2052.75,-72.7 2052.75,-72.7 2052.75,-80.62 2052.75,-80.62 2052.75,-84.58 2048.79,-88.54 2044.83,-88.54"/>
<text xml:space="preserve" text-anchor="middle" x="1798" y="-71.24" font-family="Arial" font-size="14.00" fill="#cfffac">styles/country/create&#45;country&#45;container/CreateCountryButtonContainer.module.css</text>
</g>
<!-- components/country/create&#45;country&#45;container/CreateCountryButtonContainer.tsx&#45;&gt;styles/country/create&#45;country&#45;container/CreateCountryButtonContainer.module.css -->
<g id="edge37" class="edge">
<title>components/country/create&#45;country&#45;container/CreateCountryButtonContainer.tsx&#45;&gt;styles/country/create&#45;country&#45;container/CreateCountryButtonContainer.module.css</title>
<path fill="none" stroke="#757575" d="M1507.4,-76.66C1515.45,-76.66 1523.52,-76.66 1531.59,-76.66"/>
<polygon fill="#757575" stroke="#757575" points="1531.47,-80.16 1541.47,-76.66 1531.47,-73.16 1531.47,-80.16"/>
</g>
<!-- components/country/map&#45;container&#45;settings/VotingGroupCircle.tsx&#45;&gt;constants/constants.ts -->
<g id="edge70" class="edge">
<title>components/country/map&#45;container&#45;settings/VotingGroupCircle.tsx&#45;&gt;constants/constants.ts</title>
<path fill="none" stroke="#757575" d="M1846.01,-1269C1902.98,-1283.3 2002.13,-1306.14 2088.75,-1315.66 2443.32,-1354.65 2869.54,-1344.97 3048.35,-1338.37"/>
<polygon fill="#757575" stroke="#757575" points="3048.4,-1341.87 3058.26,-1338 3048.13,-1334.88 3048.4,-1341.87"/>
</g>
<!-- components/country/map&#45;container&#45;settings/VotingGroupCircle.tsx&#45;&gt;store/countryStore.ts -->
<g id="edge71" class="edge">
<title>components/country/map&#45;container&#45;settings/VotingGroupCircle.tsx&#45;&gt;store/countryStore.ts</title>
<path fill="none" stroke="#757575" d="M1853.15,-1244.35C1913.06,-1227.61 2007.15,-1191.41 2052.75,-1121.66 2110.31,-1033.61 2020.64,-729.83 2088.75,-649.66 2127.9,-603.59 2196.38,-590.19 2250.67,-587.55"/>
<polygon fill="#757575" stroke="#757575" points="2250.65,-591.05 2260.51,-587.19 2250.39,-584.06 2250.65,-591.05"/>
</g>
<!-- components/country/map&#45;container&#45;settings/VotingGroupCircle.tsx&#45;&gt;types/country.ts -->
<g id="edge73" class="edge">
<title>components/country/map&#45;container&#45;settings/VotingGroupCircle.tsx&#45;&gt;types/country.ts</title>
<path fill="none" stroke="#757575" d="M2005.91,-1259.95C2391.4,-1265.1 3184.78,-1270.72 3229.5,-1230.66 3281.04,-1184.5 3311.73,-673.58 3318.12,-556.48"/>
<polygon fill="#757575" stroke="#757575" points="3321.62,-556.7 3318.66,-546.53 3314.63,-556.33 3321.62,-556.7"/>
</g>
<!-- styles/country/map&#45;container&#45;settings/VotingGroupCircle.module.css -->
<g id="node43" class="node">
<title>styles/country/map&#45;container&#45;settings/VotingGroupCircle.module.css</title>
<path fill="none" stroke="#cfffac" d="M2538.21,-1306.54C2538.21,-1306.54 2127.04,-1306.54 2127.04,-1306.54 2123.08,-1306.54 2119.12,-1302.58 2119.12,-1298.62 2119.12,-1298.62 2119.12,-1290.7 2119.12,-1290.7 2119.12,-1286.75 2123.08,-1282.79 2127.04,-1282.79 2127.04,-1282.79 2538.21,-1282.79 2538.21,-1282.79 2542.17,-1282.79 2546.12,-1286.75 2546.12,-1290.7 2546.12,-1290.7 2546.12,-1298.62 2546.12,-1298.62 2546.12,-1302.58 2542.17,-1306.54 2538.21,-1306.54"/>
<text xml:space="preserve" text-anchor="middle" x="2332.62" y="-1289.24" font-family="Arial" font-size="14.00" fill="#cfffac">styles/country/map&#45;container&#45;settings/VotingGroupCircle.module.css</text>
</g>
<!-- components/country/map&#45;container&#45;settings/VotingGroupCircle.tsx&#45;&gt;styles/country/map&#45;container&#45;settings/VotingGroupCircle.module.css -->
<g id="edge72" class="edge">
<title>components/country/map&#45;container&#45;settings/VotingGroupCircle.tsx&#45;&gt;styles/country/map&#45;container&#45;settings/VotingGroupCircle.module.css</title>
<path fill="none" stroke="#757575" d="M1972.3,-1269.03C2028.24,-1273.02 2090.44,-1277.46 2147.16,-1281.5"/>
<polygon fill="#757575" stroke="#757575" points="2146.69,-1284.98 2156.92,-1282.2 2147.19,-1278 2146.69,-1284.98"/>
</g>
<!-- components/country/map&#45;container&#45;settings/NumericInput.tsx -->
<g id="node39" class="node">
<title>components/country/map&#45;container&#45;settings/NumericInput.tsx</title>
<path fill="none" stroke="#cfffac" d="M2517.58,-362.54C2517.58,-362.54 2147.67,-362.54 2147.67,-362.54 2143.71,-362.54 2139.75,-358.58 2139.75,-354.62 2139.75,-354.62 2139.75,-346.7 2139.75,-346.7 2139.75,-342.75 2143.71,-338.79 2147.67,-338.79 2147.67,-338.79 2517.58,-338.79 2517.58,-338.79 2521.54,-338.79 2525.5,-342.75 2525.5,-346.7 2525.5,-346.7 2525.5,-354.62 2525.5,-354.62 2525.5,-358.58 2521.54,-362.54 2517.58,-362.54"/>
<text xml:space="preserve" text-anchor="middle" x="2332.62" y="-345.24" font-family="Arial" font-size="14.00" fill="#cfffac">components/country/map&#45;container&#45;settings/NumericInput.tsx</text>
</g>
<!-- components/country/map&#45;container&#45;settings/RegionTable.tsx&#45;&gt;store/countryStore.ts -->
<g id="edge61" class="edge">
<title>components/country/map&#45;container&#45;settings/RegionTable.tsx&#45;&gt;store/countryStore.ts</title>
<path fill="none" stroke="#757575" d="M1849.41,-250.32C1906.55,-239.63 1998.73,-232.87 2052.75,-283.66 2133.89,-359.96 2013.79,-449.29 2088.75,-531.66 2129.24,-576.16 2197.11,-589.76 2250.82,-592.89"/>
<polygon fill="#757575" stroke="#757575" points="2250.39,-596.37 2260.54,-593.33 2250.71,-589.38 2250.39,-596.37"/>
</g>
<!-- components/country/map&#45;container&#45;settings/RegionTable.tsx&#45;&gt;types/country.ts -->
<g id="edge63" class="edge">
<title>components/country/map&#45;container&#45;settings/RegionTable.tsx&#45;&gt;types/country.ts</title>
<path fill="none" stroke="#757575" d="M1863.05,-250.29C2044.58,-217.48 2576.98,-136.91 3004.25,-229.66 3111.65,-252.98 3151.98,-253.77 3229.5,-331.66 3280.57,-382.98 3305.27,-468.39 3314.66,-509.35"/>
<polygon fill="#757575" stroke="#757575" points="3311.23,-510.05 3316.78,-519.07 3318.07,-508.56 3311.23,-510.05"/>
</g>
<!-- components/country/map&#45;container&#45;settings/RegionTable.tsx&#45;&gt;ui/messages.tsx -->
<g id="edge64" class="edge">
<title>components/country/map&#45;container&#45;settings/RegionTable.tsx&#45;&gt;ui/messages.tsx</title>
<path fill="none" stroke="#757575" d="M1866.26,-250.29C1921.6,-243.99 1999.36,-244.53 2052.75,-283.66 2086.83,-308.65 2054.61,-346.76 2088.75,-371.66 2176.59,-435.72 2494.5,-338.29 2576.5,-409.66 2632.79,-458.66 2573.12,-510.28 2612.5,-573.66 2652.41,-637.9 2728.46,-687.05 2772.84,-711.83"/>
<polygon fill="#757575" stroke="#757575" points="2771.09,-714.86 2781.54,-716.59 2774.45,-708.72 2771.09,-714.86"/>
</g>
<!-- components/country/map&#45;container&#45;settings/RegionTable.tsx&#45;&gt;ui/voters&#45;settings&#45;table.tsx -->
<g id="edge65" class="edge">
<title>components/country/map&#45;container&#45;settings/RegionTable.tsx&#45;&gt;ui/voters&#45;settings&#45;table.tsx</title>
<path fill="none" stroke="#757575" d="M1988.2,-250.72C2278.59,-234.57 2819.91,-213.66 3004.25,-268.66 3046.63,-281.31 3088.21,-312.53 3112.42,-333.14"/>
<polygon fill="#757575" stroke="#757575" points="3109.84,-335.53 3119.68,-339.46 3114.44,-330.25 3109.84,-335.53"/>
</g>
<!-- components/country/map&#45;container&#45;settings/RegionTable.tsx&#45;&gt;components/country/map&#45;container&#45;settings/NumericInput.tsx -->
<g id="edge59" class="edge">
<title>components/country/map&#45;container&#45;settings/RegionTable.tsx&#45;&gt;components/country/map&#45;container&#45;settings/NumericInput.tsx</title>
<path fill="none" stroke="#757575" d="M1988.05,-260.84C2010.69,-265.62 2032.81,-272.91 2052.75,-283.66 2075.6,-295.99 2065.92,-317.3 2088.75,-329.66 2101.28,-336.45 2114.71,-341.82 2128.6,-346.02"/>
<polygon fill="#757575" stroke="#757575" points="2127.27,-349.28 2137.84,-348.6 2129.15,-342.54 2127.27,-349.28"/>
</g>
<!-- components/country/map&#45;container&#45;settings/SelectComponentRegionTable.tsx -->
<g id="node41" class="node">
<title>components/country/map&#45;container&#45;settings/SelectComponentRegionTable.tsx</title>
<path fill="none" stroke="#c6c5fe" d="M2568.58,-320.54C2568.58,-320.54 2096.67,-320.54 2096.67,-320.54 2092.71,-320.54 2088.75,-316.58 2088.75,-312.62 2088.75,-312.62 2088.75,-304.7 2088.75,-304.7 2088.75,-300.75 2092.71,-296.79 2096.67,-296.79 2096.67,-296.79 2568.58,-296.79 2568.58,-296.79 2572.54,-296.79 2576.5,-300.75 2576.5,-304.7 2576.5,-304.7 2576.5,-312.62 2576.5,-312.62 2576.5,-316.58 2572.54,-320.54 2568.58,-320.54"/>
<text xml:space="preserve" text-anchor="middle" x="2332.62" y="-303.24" font-family="Arial" font-size="14.00" fill="#c6c5fe">components/country/map&#45;container&#45;settings/SelectComponentRegionTable.tsx</text>
</g>
<!-- components/country/map&#45;container&#45;settings/RegionTable.tsx&#45;&gt;components/country/map&#45;container&#45;settings/SelectComponentRegionTable.tsx -->
<g id="edge60" class="edge">
<title>components/country/map&#45;container&#45;settings/RegionTable.tsx&#45;&gt;components/country/map&#45;container&#45;settings/SelectComponentRegionTable.tsx</title>
<path fill="none" stroke="#757575" d="M1950.3,-275.01C1984.03,-277.81 2019.61,-280.81 2052.75,-283.66 2095.54,-287.35 2142.01,-291.47 2184.53,-295.29"/>
<polygon fill="#757575" stroke="#757575" points="2184.05,-298.76 2194.32,-296.17 2184.67,-291.79 2184.05,-298.76"/>
</g>
<!-- styles/country/map&#45;container&#45;settings/RegionTable.module.css -->
<g id="node42" class="node">
<title>styles/country/map&#45;container&#45;settings/RegionTable.module.css</title>
<path fill="none" stroke="#cfffac" d="M2996.33,-301.54C2996.33,-301.54 2620.42,-301.54 2620.42,-301.54 2616.46,-301.54 2612.5,-297.58 2612.5,-293.62 2612.5,-293.62 2612.5,-285.7 2612.5,-285.7 2612.5,-281.75 2616.46,-277.79 2620.42,-277.79 2620.42,-277.79 2996.33,-277.79 2996.33,-277.79 3000.29,-277.79 3004.25,-281.75 3004.25,-285.7 3004.25,-285.7 3004.25,-293.62 3004.25,-293.62 3004.25,-297.58 3000.29,-301.54 2996.33,-301.54"/>
<text xml:space="preserve" text-anchor="middle" x="2808.38" y="-284.24" font-family="Arial" font-size="14.00" fill="#cfffac">styles/country/map&#45;container&#45;settings/RegionTable.module.css</text>
</g>
<!-- components/country/map&#45;container&#45;settings/RegionTable.tsx&#45;&gt;styles/country/map&#45;container&#45;settings/RegionTable.module.css -->
<g id="edge62" class="edge">
<title>components/country/map&#45;container&#45;settings/RegionTable.tsx&#45;&gt;styles/country/map&#45;container&#45;settings/RegionTable.module.css</title>
<path fill="none" stroke="#757575" d="M1988.37,-267.73C2162.88,-272.41 2421.26,-279.32 2600.98,-284.14"/>
<polygon fill="#757575" stroke="#757575" points="2600.82,-287.63 2610.91,-284.4 2601.01,-280.64 2600.82,-287.63"/>
</g>
<!-- components/country/map&#45;container&#45;settings/SelectComponentRegionTable.tsx&#45;&gt;styles/country/map&#45;container&#45;settings/RegionTable.module.css -->
<g id="edge66" class="edge">
<title>components/country/map&#45;container&#45;settings/SelectComponentRegionTable.tsx&#45;&gt;styles/country/map&#45;container&#45;settings/RegionTable.module.css</title>
<path fill="none" stroke="#757575" d="M2576.75,-298.91C2584.77,-298.59 2592.79,-298.27 2600.77,-297.95"/>
<polygon fill="#757575" stroke="#757575" points="2600.64,-301.46 2610.49,-297.56 2600.36,-294.46 2600.64,-301.46"/>
</g>
<!-- components/windowSize/DefaultMessage.tsx&#45;&gt;ui/messages.tsx -->
<g id="edge85" class="edge">
<title>components/windowSize/DefaultMessage.tsx&#45;&gt;ui/messages.tsx</title>
<path fill="none" stroke="#757575" d="M974.13,-944.53C1287.46,-948.06 2008.49,-952.92 2052.75,-923.66 2085.61,-901.94 2056.46,-865.23 2088.75,-842.66 2177.79,-780.42 2470.04,-831.31 2576.5,-809.66 2646.39,-795.45 2724.07,-765.4 2769.15,-746.44"/>
<polygon fill="#757575" stroke="#757575" points="2770.39,-749.72 2778.23,-742.59 2767.65,-743.28 2770.39,-749.72"/>
</g>
<!-- styles/windowSize/DefaultMessage.module.css -->
<g id="node48" class="node">
<title>styles/windowSize/DefaultMessage.module.css</title>
<path fill="none" stroke="#cfffac" d="M1400.71,-1421.54C1400.71,-1421.54 1116.29,-1421.54 1116.29,-1421.54 1112.33,-1421.54 1108.38,-1417.58 1108.38,-1413.62 1108.38,-1413.62 1108.38,-1405.7 1108.38,-1405.7 1108.38,-1401.75 1112.33,-1397.79 1116.29,-1397.79 1116.29,-1397.79 1400.71,-1397.79 1400.71,-1397.79 1404.67,-1397.79 1408.62,-1401.75 1408.62,-1405.7 1408.62,-1405.7 1408.62,-1413.62 1408.62,-1413.62 1408.62,-1417.58 1404.67,-1421.54 1400.71,-1421.54"/>
<text xml:space="preserve" text-anchor="middle" x="1258.5" y="-1404.24" font-family="Arial" font-size="14.00" fill="#cfffac">styles/windowSize/DefaultMessage.module.css</text>
</g>
<!-- components/windowSize/DefaultMessage.tsx&#45;&gt;styles/windowSize/DefaultMessage.module.css -->
<g id="edge84" class="edge">
<title>components/windowSize/DefaultMessage.tsx&#45;&gt;styles/windowSize/DefaultMessage.module.css</title>
<path fill="none" stroke="#757575" d="M831.28,-954.79C835.16,-1013.66 860.48,-1271.42 1009.75,-1383.66 1034.87,-1402.56 1065.7,-1412.82 1096.97,-1417.82"/>
<polygon fill="#757575" stroke="#757575" points="1096.15,-1421.24 1106.54,-1419.17 1097.12,-1414.31 1096.15,-1421.24"/>
</g>
<!-- main.tsx -->
<g id="node50" class="node">
<title>main.tsx</title>
<path fill="none" stroke="#c6c5fe" d="M122.46,-1519.54C122.46,-1519.54 71.29,-1519.54 71.29,-1519.54 67.33,-1519.54 63.38,-1515.58 63.38,-1511.62 63.38,-1511.62 63.38,-1503.7 63.38,-1503.7 63.38,-1499.75 67.33,-1495.79 71.29,-1495.79 71.29,-1495.79 122.46,-1495.79 122.46,-1495.79 126.42,-1495.79 130.38,-1499.75 130.38,-1503.7 130.38,-1503.7 130.38,-1511.62 130.38,-1511.62 130.38,-1515.58 126.42,-1519.54 122.46,-1519.54"/>
<text xml:space="preserve" text-anchor="middle" x="96.88" y="-1502.24" font-family="Arial" font-size="14.00" fill="#c6c5fe">main.tsx</text>
</g>
<!-- main.tsx&#45;&gt;App.tsx -->
<g id="edge89" class="edge">
<title>main.tsx&#45;&gt;App.tsx</title>
<path fill="none" stroke="#757575" d="M130.72,-1509.6C162,-1511.45 209.17,-1514.24 242.92,-1516.24"/>
<polygon fill="#757575" stroke="#757575" points="242.54,-1519.72 252.73,-1516.82 242.96,-1512.73 242.54,-1519.72"/>
</g>
<!-- styles/index.css -->
<g id="node51" class="node">
<title>styles/index.css</title>
<path fill="none" stroke="#cfffac" d="M332.33,-1488.54C332.33,-1488.54 237.67,-1488.54 237.67,-1488.54 233.71,-1488.54 229.75,-1484.58 229.75,-1480.62 229.75,-1480.62 229.75,-1472.7 229.75,-1472.7 229.75,-1468.75 233.71,-1464.79 237.67,-1464.79 237.67,-1464.79 332.33,-1464.79 332.33,-1464.79 336.29,-1464.79 340.25,-1468.75 340.25,-1472.7 340.25,-1472.7 340.25,-1480.62 340.25,-1480.62 340.25,-1484.58 336.29,-1488.54 332.33,-1488.54"/>
<text xml:space="preserve" text-anchor="middle" x="285" y="-1471.24" font-family="Arial" font-size="14.00" fill="#cfffac">styles/index.css</text>
</g>
<!-- main.tsx&#45;&gt;styles/index.css -->
<g id="edge90" class="edge">
<title>main.tsx&#45;&gt;styles/index.css</title>
<path fill="none" stroke="#757575" d="M130.72,-1502.19C154.97,-1498.15 188.77,-1492.52 218.46,-1487.58"/>
<polygon fill="#757575" stroke="#757575" points="218.83,-1491.07 228.12,-1485.97 217.68,-1484.16 218.83,-1491.07"/>
</g>
<!-- setupTests.ts -->
<g id="node52" class="node">
<title>setupTests.ts</title>
<path fill="none" stroke="#cfffac" d="M136.33,-1623.54C136.33,-1623.54 57.42,-1623.54 57.42,-1623.54 53.46,-1623.54 49.5,-1619.58 49.5,-1615.62 49.5,-1615.62 49.5,-1607.7 49.5,-1607.7 49.5,-1603.75 53.46,-1599.79 57.42,-1599.79 57.42,-1599.79 136.33,-1599.79 136.33,-1599.79 140.29,-1599.79 144.25,-1603.75 144.25,-1607.7 144.25,-1607.7 144.25,-1615.62 144.25,-1615.62 144.25,-1619.58 140.29,-1623.54 136.33,-1623.54"/>
<text xml:space="preserve" text-anchor="middle" x="96.88" y="-1606.24" font-family="Arial" font-size="14.00" fill="#cfffac">setupTests.ts</text>
</g>
<!-- utils/countryTypesFunctions.ts&#45;&gt;constants/constants.ts -->
<g id="edge97" class="edge">
<title>utils/countryTypesFunctions.ts&#45;&gt;constants/constants.ts</title>
<path fill="none" stroke="#757575" d="M2907.12,-543.23C2941.92,-545.15 2978.76,-554.08 3004.25,-578.66 3038.49,-611.68 3032.22,-742.78 3040.25,-789.66 3074.86,-991.8 3116.9,-1236.06 3129.87,-1311.41"/>
<polygon fill="#757575" stroke="#757575" points="3126.36,-1311.63 3131.5,-1320.89 3133.26,-1310.44 3126.36,-1311.63"/>
</g>
<!-- utils/countryTypesFunctions.ts&#45;&gt;types/country.ts -->
<g id="edge98" class="edge">
<title>utils/countryTypesFunctions.ts&#45;&gt;types/country.ts</title>
<path fill="none" stroke="#757575" d="M2907.1,-548.83C3008.97,-544.84 3165.76,-538.69 3253.72,-535.24"/>
<polygon fill="#757575" stroke="#757575" points="3253.78,-538.74 3263.63,-534.85 3253.5,-531.74 3253.78,-538.74"/>
</g>
<!-- utils/countryTypesFunctions.ts&#45;&gt;ui/voters&#45;settings&#45;table.tsx -->
<g id="edge99" class="edge">
<title>utils/countryTypesFunctions.ts&#45;&gt;ui/voters&#45;settings&#45;table.tsx</title>
<path fill="none" stroke="#757575" d="M2829.19,-540.45C2884.18,-506.56 3038.94,-411.17 3104.23,-370.93"/>
<polygon fill="#757575" stroke="#757575" points="3105.95,-373.99 3112.62,-365.76 3102.27,-368.03 3105.95,-373.99"/>
</g>
</g>
</svg>
